<?xml version="1.0" encoding="utf-8"?>
<!-- Generator: Adobe Illustrator 22.1.0, SVG Export Plug-In . SVG Version: 6.00 Build 0)  -->
<svg version="1.1" id="Layer_1" xmlns="http://www.w3.org/2000/svg" xmlns:xlink="http://www.w3.org/1999/xlink" x="0px" y="0px"
	 viewBox="0 0 128 160" style="enable-background:new 0 0 128 160;" xml:space="preserve">
<style type="text/css">
	.st0{stroke:#000000;stroke-width:4;stroke-miterlimit:10;}
	.st1{stroke:#000000;stroke-miterlimit:10;}
</style>
<path class="st0" d="M119.4,67c0-23.9-15.3-45.1-38-52.6c-1-0.3-2.2,0.2-2.5,1.3s0.2,2.2,1.3,2.5c26.9,8.9,41.6,38,32.6,65
	c-6.4,19.3-23.5,33-43.7,35l4.9-4.9c0.8-0.7,0.9-2,0.1-2.8c-0.7-0.8-2-0.9-2.8-0.1c0,0-0.1,0.1-0.1,0.1l-8.6,8.6
	c-0.1,0.1-0.2,0.2-0.3,0.3c0,0-0.1,0.1-0.1,0.2c0,0.1-0.1,0.1-0.1,0.2l-0.1,0.2c0,0-0.1,0.1-0.1,0.2c-0.1,0.3-0.1,0.5,0,0.8
	c0,0.1,0,0.1,0,0.2l0.1,0.2l0.1,0.2c0,0.1,0,0.1,0.1,0.2c0.1,0.1,0.2,0.2,0.3,0.3l8.6,8.6c0.8,0.8,2,0.8,2.8,0c0.8-0.8,0.8-2,0-2.8
	l-5.4-5.4C97.3,119.8,119.4,95.8,119.4,67z"/>
<path class="st0" d="M47.8,115.8c-26.9-9-41.5-38.1-32.5-65c6.4-19.2,23.5-32.9,43.7-34.9L54,20.8c-0.8,0.7-0.9,2-0.1,2.8
	c0.7,0.8,2,0.9,2.8,0.1c0,0,0.1-0.1,0.1-0.1l8.6-8.6c0.1-0.1,0.2-0.2,0.3-0.3c0,0,0.1-0.1,0.1-0.1c0-0.1,0.1-0.1,0.1-0.2l0.1-0.2
	c0,0,0.1-0.1,0.1-0.2c0.1-0.3,0.1-0.5,0-0.8c0-0.1,0-0.1,0-0.2l-0.1-0.2l-0.1-0.2c0-0.1,0-0.1-0.1-0.1c-0.1-0.1-0.2-0.2-0.3-0.3
	l-8.7-8.6c-0.8-0.8-2-0.8-2.8,0c-0.8,0.8-0.8,2,0,2.8l5.4,5.4C28.9,14.4,6.3,41.1,8.8,71.6c1.8,22.1,16.7,41,37.7,48
	c0.2,0.1,0.4,0.1,0.6,0.1c1.1,0,2-0.9,2-2C49.2,116.8,48.6,116.1,47.8,115.8z"/>
<path class="st0" d="M64.8,79l5.7-5.7c10.3,3.2,21.2-2.5,24.4-12.8c3.2-10.3-2.5-21.2-12.8-24.4S61,38.6,57.7,48.8
	c-1.2,3.8-1.2,7.8,0,11.6L33.3,85c-0.4,0.4-0.6,0.8-0.6,1.3l-0.5,10.4c0,0.6,0.2,1.1,0.6,1.5c0.4,0.4,0.9,0.6,1.4,0.6h0.1l10.5-0.5
	c0.9,0,1.6-0.6,1.8-1.5l1.8-7l6.6-1.6c0.7-0.2,1.3-0.8,1.5-1.5l1.5-6.5l5.6-0.8C64.1,79.5,64.5,79.3,64.8,79z M56.1,76.6
	c-0.8,0.1-1.5,0.7-1.7,1.5l-1.5,6.6l-6.6,1.5c-0.7,0.2-1.3,0.7-1.5,1.4l-1.8,6.7l-6.8,0.3l0.4-7.5l24.8-24.8
	c0.6-0.6,0.7-1.4,0.5-2.1c-3.1-8,0.8-17,8.8-20.1c1.8-0.7,3.7-1.1,5.6-1.1c4.1,0,8.1,1.6,11,4.5c6.1,6,6.1,15.8,0.1,21.9
	C83,70,76.5,71.4,70.7,69.1c-0.7-0.3-1.6-0.1-2.1,0.4l-6.1,6.1L56.1,76.6z"/>
<path class="st1" d="M81.2,62.3c0.4,0.4,0.9,0.6,1.4,0.6c0.5,0,1.1-0.2,1.4-0.6c4.2-4.2,4.2-11.1,0-15.3c-4.2-4.2-11.1-4.2-15.3,0
	c-0.4,0.4-0.6,0.9-0.6,1.4c0,0.5,0.2,1,0.6,1.4L81.2,62.3z M81.2,49.8c2.1,2.1,2.6,5.4,1.2,8l-9.2-9.2C75.8,47.2,79,47.7,81.2,49.8z
	"/>
</svg>
