<svg id="Layer_1" data-name="Layer 1" xmlns="http://www.w3.org/2000/svg" viewBox="0 0 128 160"><defs><style>.cls-1{fill:#fff;}</style></defs><title>noun-change-password-3377689 (1)-01</title><path class="cls-1" d="M119.4,67a55.37,55.37,0,0,0-38-52.6,2,2,0,0,0-2.5,1.3,1.94,1.94,0,0,0,1.3,2.5,51.44,51.44,0,0,1-11.1,100l4.9-4.9a2,2,0,1,0-2.7-2.9l-.1.1-8.6,8.6-.3.3a.35.35,0,0,0-.1.2c0,.1-.1.1-.1.2l-.1.2a.35.35,0,0,0-.1.2,1.1,1.1,0,0,0,0,.8v.2l.1.2.1.2c0,.1,0,.1.1.2l.3.3,8.6,8.6a2,2,0,1,0,2.8-2.8l-5.4-5.4A55.92,55.92,0,0,0,119.4,67Z"/><path class="cls-1" d="M47.8,115.8A51.39,51.39,0,0,1,59,15.9l-5,4.9a2,2,0,1,0,2.7,2.9l.1-.1L65.4,15l.3-.3.1-.1c0-.1.1-.1.1-.2l.1-.2a.35.35,0,0,0,.1-.2,1.1,1.1,0,0,0,0-.8V13l-.1-.2-.1-.2c0-.1,0-.1-.1-.1l-.3-.3L56.8,3.6a1.93,1.93,0,0,0-2.8,0,1.93,1.93,0,0,0,0,2.8l5.4,5.4A55.42,55.42,0,0,0,46.5,119.6a1.27,1.27,0,0,0,.6.1,2,2,0,0,0,2-2A1.84,1.84,0,0,0,47.8,115.8Z"/><path class="cls-1" d="M64.8,79l5.7-5.7A19.48,19.48,0,1,0,57.7,48.8a19.14,19.14,0,0,0,0,11.6L33.3,85a1.76,1.76,0,0,0-.6,1.3l-.5,10.4a2,2,0,0,0,.6,1.5,2,2,0,0,0,1.4.6h.1l10.5-.5a1.82,1.82,0,0,0,1.8-1.5l1.8-7L55,88.2a2.25,2.25,0,0,0,1.5-1.5L58,80.2l5.6-.8A1.29,1.29,0,0,0,64.8,79Zm-8.7-2.4a2,2,0,0,0-1.7,1.5l-1.5,6.6-6.6,1.5a2.12,2.12,0,0,0-1.5,1.4L43,94.3l-6.8.3.4-7.5L61.4,62.3a2.09,2.09,0,0,0,.5-2.1,15.53,15.53,0,1,1,25.5,5.2,15.17,15.17,0,0,1-16.7,3.7,2,2,0,0,0-2.1.4l-6.1,6.1Z"/><path class="cls-1" d="M81.2,62.3a2,2,0,0,0,1.4.6,1.82,1.82,0,0,0,1.4-.6A10.82,10.82,0,0,0,68.7,47a1.93,1.93,0,0,0,0,2.8Zm0-12.5a6.83,6.83,0,0,1,1.2,8l-9.2-9.2A6.86,6.86,0,0,1,81.2,49.8Z"/></svg>