<?xml version="1.0" encoding="utf-8"?>
<!-- Generator: Adobe Illustrator 27.5.0, SVG Export Plug-In . SVG Version: 6.00 Build 0)  -->
<svg version="1.1" id="Layer_1" xmlns="http://www.w3.org/2000/svg" xmlns:xlink="http://www.w3.org/1999/xlink" x="0px" y="0px"
	 viewBox="0 0 401.023 265.703" style="enable-background:new 0 0 401.023 265.703;" xml:space="preserve">
<g>
	<rect x="0" style="fill:#FFFFFF;" width="401.023" height="265.703"/>
	<g>
		<linearGradient id="SVGID_1_" gradientUnits="userSpaceOnUse" x1="200.5119" y1="236.8132" x2="200.5119" y2="132.5083">
			<stop  offset="0" style="stop-color:#FFFFFF"/>
			<stop  offset="1" style="stop-color:#000000"/>
		</linearGradient>
		<path style="opacity:0.4;fill:url(#SVGID_1_);" d="M343.439,174.986c0,0-0.072,0.199-0.523,0.342
			c0.008,0.297,0.008,0.596-0.008,0.898c0.043-0.002,0.076-0.006,0.119-0.008c-0.057,0.566-0.418,4.203-0.963,6.156
			c-0.188,0.736-0.396,1.322-0.625,1.588c-0.299,0.354-0.535,0.613-0.947,0.893c-0.256,0.174-0.59,0.33-1.09,0.555
			c-0.012-0.006-0.023-0.014-0.037-0.018c-2.393,1.129-4.816,2.152-7.211,3.068c-0.074,0.074-0.172,0.17-0.287,0.283
			c0.572,0.096,1.357,0.236,2.564,0.459c1.135,0.209,2.795,2.762,1.728,4.631c-0.072,0.129-0.178,0.24-0.295,0.344
			c-0.012,0.01-0.016,0.023-0.029,0.035c0-0.004,0-0.008,0-0.008c-1.32,1.123-5.002,0.947-5.008,0.947
			c-1.582-0.072-2.842-0.926-3.842-1.949c-8.398,7.439-24.547,20.832-32.752,22.717c-0.373,0.086-15.352,1.957-19.828,2.369
			c-6.234,0.574-12.506,0.814-18.762,1.045c-6.297,0.232-53.957,1.592-60.26,1.615c-1.117,0.004-23.848-1.01-25.441-2.1
			c-1.539-0.387-2.65-1.146-4.008-2.459c-0.018,0.023-0.033,0.051-0.057,0.07c0,0-0.303-0.252-0.816-0.691
			c0,0-0.004,0.006-0.008,0.01c0,0-12.08-9.902-13.723-14.631c0,0-0.754-2.91-0.793-4.385c-0.115-0.887-0.127-1.619,0.1-1.789
			l-0.25-1.787c-0.096-0.143-0.182-0.342-0.215-0.639v-0.006c-0.018-0.068-0.033-0.141-0.043-0.227l-0.676-5.402
			c0,0,0.002-0.023,0.01-0.055l-0.029-0.23c0,0,0.002-0.045,0.025-0.104l-0.76-5.436l-2.1-3.951l1.271-3.777
			c-0.643-0.932-1.383-1.877-2.236-2.826c-0.164-0.184-0.313-0.367-0.486-0.551c-0.379-0.383-0.779-0.764-1.199-1.145
			c-0.107-0.098-0.209-0.195-0.318-0.291c-0.031-0.027-0.064-0.053-0.094-0.08c-0.512-0.445-1.055-0.887-1.641-1.32
			c-0.508-0.365-1.051-0.723-1.613-1.072c-0.141-0.088-0.275-0.178-0.42-0.266c-0.088-0.051-0.184-0.104-0.271-0.154
			c-0.643-0.377-1.313-0.744-2.025-1.094c-0.354-0.166-0.721-0.326-1.09-0.484c-0.063-0.027-0.121-0.055-0.182-0.08
			c-0.307-0.129-0.625-0.25-0.943-0.373c-0.137-0.051-0.268-0.107-0.406-0.158c-0.207-0.076-0.424-0.146-0.635-0.219
			c-0.262-0.09-0.52-0.184-0.787-0.27c-0.082-0.025-0.17-0.049-0.252-0.074c-0.406-0.125-0.814-0.248-1.236-0.361
			c-0.947-0.24-1.941-0.434-2.961-0.58c-0.076-0.01-0.148-0.025-0.223-0.037c-0.275-0.035-0.559-0.057-0.838-0.088
			c-0.283-0.029-0.564-0.066-0.852-0.088c-0.064-0.006-0.129-0.004-0.193-0.008c-0.502-0.035-1.008-0.061-1.514-0.068
			c-1.135-0.008-2.281,0.072-3.412,0.217c-0.096,0.012-0.189,0.027-0.283,0.041c-0.182,0.025-0.363,0.049-0.543,0.078
			c-0.838,0.131-1.662,0.297-2.459,0.488c-0.424,0.104-0.84,0.217-1.256,0.33c-0.105,0.029-0.217,0.055-0.322,0.086
			c-0.221,0.063-0.43,0.137-0.646,0.203c-0.295,0.092-0.594,0.178-0.879,0.277c-0.057,0.02-0.105,0.043-0.162,0.063
			c-0.432,0.152-0.855,0.313-1.26,0.484c-0.111,0.049-0.211,0.105-0.32,0.154c-0.328,0.148-0.656,0.297-0.957,0.459
			c-0.148,0.082-0.283,0.17-0.42,0.258c-0.127,0.082-0.256,0.16-0.379,0.242c-0.102,0.066-0.199,0.133-0.303,0.197
			c-0.111,0.068-0.201,0.15-0.299,0.229c-0.131,0.105-0.266,0.207-0.389,0.318c-0.09,0.078-0.178,0.16-0.273,0.236l-0.332,0.287
			l-0.598,0.516c-0.084,0.074-0.156,0.152-0.23,0.229c-0.15,0.15-0.297,0.301-0.439,0.453c-0.047,0.051-0.092,0.1-0.141,0.15
			l-0.791,0.836c-0.039,0.045-0.072,0.094-0.109,0.139c-0.199,0.244-0.385,0.494-0.578,0.74l-0.652,0.854l-0.527,0.85l-0.02,0.029
			c-0.088,0.143-0.166,0.285-0.25,0.428c-0.092,0.154-0.186,0.309-0.271,0.465c-0.07,0.129-0.135,0.26-0.203,0.389
			c-0.088,0.166-0.178,0.334-0.26,0.5c-0.066,0.135-0.125,0.27-0.188,0.402c-0.076,0.162-0.154,0.324-0.227,0.488
			c-0.063,0.143-0.119,0.287-0.178,0.432c-0.064,0.152-0.131,0.307-0.189,0.461c-0.053,0.133-0.098,0.264-0.146,0.396
			c-0.061,0.166-0.125,0.33-0.182,0.496c-0.035,0.102-0.064,0.203-0.1,0.305c-0.065,0.197-0.131,0.395-0.191,0.59
			c-0.01,0.035-0.02,0.07-0.029,0.105c-0.168,0.559-0.318,1.115-0.451,1.668c-0.275,1.174-0.492,2.334-0.672,3.471
			c-0.01,0.063-0.018,0.123-0.027,0.184c-0.078,0.504-0.15,1.006-0.217,1.5c-0.063,0.459-0.119,0.912-0.174,1.361
			c-0.012,0.092-0.023,0.186-0.035,0.275c-0.133,1.094-0.254,2.158-0.387,3.188c-0.006,0.045-0.012,0.088-0.018,0.131
			c-0.061,0.465-0.123,0.924-0.191,1.375c-0.025,0.166-0.057,0.324-0.084,0.488c-0.051,0.318-0.102,0.639-0.16,0.949
			c0,0-0.004,0.016-0.006,0.023v0.002c-0.004,0.025-0.01,0.051-0.014,0.076c-0.074,0.443-0.156,0.881-0.252,1.305
			c-0.082,0.367-0.176,0.721-0.268,1.072c-0.021,0.08-0.041,0.166-0.063,0.246c-0.225,0.818-0.471,1.592-0.709,2.318
			c-0.012,0.037-0.025,0.076-0.037,0.111c-0.078,0.25-0.154,0.486-0.23,0.725c-0.393,1.232-0.744,2.332-1.039,3.254
			c-0.379,1.191-0.668,2.094-0.854,2.68c0.082,0.053,0.119,0.096,0.119,0.096s-0.24,0.662-0.67,1.24v14.58
			c0,0.115-0.023,0.211-0.059,0.291c-0.23,2.771-4.527,4.99-9.852,5.057v0.016H70.361l0.066-0.023
			c-0.182,0.004-0.365,0.014-0.551,0.014c-3.551,0-6.668-0.959-8.475-2.406c-0.127-0.102-0.246-0.205-0.359-0.311
			c-0.064-0.059-0.121-0.119-0.18-0.18c-0.076-0.078-0.148-0.156-0.219-0.236c-0.049-0.061-0.1-0.117-0.146-0.178
			c-0.08-0.105-0.154-0.213-0.223-0.32c-0.023-0.037-0.051-0.072-0.072-0.107c-0.084-0.145-0.154-0.291-0.217-0.439
			c-0.02-0.049-0.035-0.098-0.051-0.145c-0.041-0.113-0.074-0.229-0.102-0.346c-0.01-0.047-0.021-0.096-0.031-0.143
			c-0.027-0.16-0.047-0.322-0.047-0.486c0-0.023,0.006-0.045,0.006-0.066c-0.012-0.104-0.002-0.176-0.002-0.176v-0.477h-0.004
			v-0.143v-20.25h14.219v-33.6H57.33v-0.461v-2.434h18.396H77.5h21.508v2.4v0.494H80.002v33.6h5.783h1.93h9.91v3.482
			c0.111-0.35,0.232-0.723,0.365-1.145c0.35-1.092,0.774-2.42,1.26-3.941c0.498-1.525,1.037-3.234,1.338-5.123
			c0.719-3.771,0.859-8.217,1.973-12.959c0.574-2.367,1.424-4.811,2.906-7.209l0.563-0.9l0.674-0.883
			c0.232-0.293,0.439-0.594,0.691-0.883l0.811-0.859c0.281-0.283,0.521-0.578,0.834-0.854l0.953-0.822
			c0.336-0.27,0.592-0.557,0.998-0.813c0.402-0.254,0.775-0.525,1.207-0.764c1.75-0.947,3.896-1.635,6.129-2.176
			c2.24-0.535,4.668-0.891,7.168-0.873c2.475,0.035,4.873,0.379,7.027,0.93c2.137,0.572,4.053,1.301,5.771,2.109
			c1.688,0.826,3.168,1.732,4.471,2.67c1.283,0.945,2.369,1.928,3.334,2.906c0.813,0.857,1.508,1.711,2.137,2.553l0.516-1.531
			l0.283-0.092h-0.002l10.672-3.488h0.951h0.994h1.918h1.672c1.686-3.34,6.227-5.746,11.607-5.82v-0.01h7.719
			c5.492,0,10.15,2.438,11.865,5.83h19.195c1.688-3.34,6.229-5.746,11.609-5.82v-0.01h7.719c5.492,0,10.15,2.438,11.865,5.83h1.727
			h1.295c1.686-3.34,6.227-5.746,11.607-5.82v-0.01h7.719c5.492,0,10.15,2.438,11.865,5.83h0.355h2.275l-0.123-0.189
			c0,0-0.43-0.27,0.516-0.432h2.662h0.002c0.566,0.002,6.42,0.021,13.828,0.039c1.898-3.035,6.227-5.168,11.291-5.238v-0.01h7.717
			c5.182,0,9.627,2.166,11.553,5.26c1.699-0.012,2.75-0.029,2.883-0.051h2.662c0,0,1.031,0.215,2.063,1.08
			c0.086,0.07,0.193,0.162,0.311,0.256c1.299,1.072,4.35,3.543,4.586,4.287C343.869,172.986,343.439,174.986,343.439,174.986z"/>
		<g>
			<g>
				<g>
					<path style="fill:#5D1707;" d="M149.529,139.953l1.92-0.195c0,0,0.525-0.066,0.715,0.52l0.637,2.242
						c0,0,0.059,0.357-0.262,0.357c-0.32,0-1.898,0-1.898,0s-0.584,0.033-0.811-0.26c-0.225-0.293-0.58-2.275-0.58-2.275
						S149.143,139.934,149.529,139.953z"/>
					<path style="fill:#E3301F;" d="M149.654,140.281l1.123-0.113c0,0,0.307-0.037,0.416,0.305l0.375,1.311
						c0,0,0.031,0.209-0.154,0.209c-0.186,0-1.109,0-1.109,0s-0.285,0.027-0.416-0.145c-0.133-0.17-0.398-1.338-0.398-1.338
						S149.449,140.227,149.654,140.281z"/>
				</g>
				<g>
					<g>
						<g>
							<path d="M320.143,128.338v-0.02h-8.305v3.496c-2.955,3.035-4.857,7.768-4.857,13.088c0,5.322,1.902,10.053,4.857,13.09v3.496
								h7.717c6.945,0,12.576-7.426,12.576-16.586C332.131,136.004,326.814,128.742,320.143,128.338z"/>
							<g>
								<g>
									<path style="fill:#363635;" d="M299.516,144.902c0,9.16,5.631,16.586,12.574,16.586c6.945,0,12.578-7.426,12.578-16.586
										c0-9.158-5.633-16.584-12.578-16.584C305.147,128.318,299.516,135.744,299.516,144.902z"/>
									<path style="fill:#222222;" d="M299.516,144.902c0,9.16,5.631,16.586,12.574,16.586c6.945,0,12.578-7.426,12.578-16.586
										c0-9.158-5.633-16.584-12.578-16.584C305.147,128.318,299.516,135.744,299.516,144.902z"/>
									<g>
										<ellipse cx="312.092" cy="144.902" rx="8.533" ry="11.252"/>
										<path style="fill:#D5D3CB;" d="M304.301,144.902c0,5.676,3.486,10.273,7.791,10.273c4.303,0,7.789-4.598,7.789-10.273
											c0-5.674-3.486-10.273-7.789-10.273C307.787,134.629,304.301,139.229,304.301,144.902z"/>
										<g>
											<path style="fill:#4C4C49;" d="M308.184,138.783c-0.012-0.121-0.004-0.24,0.033-0.359c0.83-0.982,1.9-1.617,3.08-1.738
												c0.111,0.033,0.211,0.094,0.299,0.188c0.039,0.076,0.074,0.158,0.103,0.248v5.713c-0.023,0.076-0.053,0.148-0.084,0.219
												c-0.025,0.016-0.051,0.033-0.076,0.049c-0.07-0.01-0.141-0.029-0.207-0.059l-3.107-4.102
												C308.207,138.891,308.195,138.836,308.184,138.783z"/>
											<path style="fill:#4C4C49;" d="M305.906,144.424c-0.074-0.072-0.131-0.166-0.168-0.281
												c0.06-1.471,0.475-2.916,1.246-4.102c0.096-0.082,0.199-0.131,0.31-0.148c0.068,0.018,0.137,0.045,0.205,0.082
												l3.064,4.037c0.023,0.076,0.043,0.154,0.057,0.234c-0.008,0.035-0.018,0.07-0.027,0.105
												c-0.055,0.059-0.113,0.111-0.178,0.15h-4.396C305.98,144.48,305.943,144.455,305.906,144.424z"/>
											<path style="fill:#4C4C49;" d="M307.393,150.357c-0.092,0.018-0.182,0.01-0.27-0.037
												c-0.762-1.076-1.262-2.477-1.373-4.031c0.022-0.146,0.066-0.279,0.137-0.396c0.057-0.055,0.117-0.102,0.188-0.143
												l4.33-0.1c0.059,0.031,0.111,0.068,0.166,0.111c0.012,0.031,0.027,0.064,0.037,0.1c-0.004,0.092-0.018,0.184-0.039,0.271
												l-3.053,4.17C307.475,150.326,307.435,150.344,307.393,150.357z"/>
											<path style="fill:#4C4C49;" d="M311.596,152.902c-0.059,0.096-0.127,0.172-0.217,0.217
												c-1.113-0.098-2.203-0.668-3.092-1.699c-0.059-0.127-0.098-0.266-0.107-0.416c0.016-0.086,0.035-0.18,0.063-0.268
												l3.107-3.982c0.057-0.031,0.117-0.055,0.178-0.07c0.025,0.012,0.053,0.023,0.08,0.037
												c0.043,0.072,0.082,0.15,0.113,0.236l-0.063,5.797C311.639,152.805,311.617,152.854,311.596,152.902z"/>
											<path style="fill:#4C4C49;" d="M315.998,138.783c0.012-0.121,0.002-0.24-0.035-0.359
												c-0.828-0.982-1.898-1.617-3.078-1.738c-0.111,0.033-0.213,0.094-0.301,0.188c-0.037,0.076-0.072,0.158-0.102,0.248
												v5.713c0.022,0.076,0.051,0.148,0.086,0.219c0.023,0.016,0.049,0.033,0.076,0.049c0.068-0.01,0.139-0.029,0.207-0.059
												l3.108-4.102C315.975,138.891,315.988,138.836,315.998,138.783z"/>
											<path style="fill:#4C4C49;" d="M318.275,144.424c0.072-0.072,0.131-0.166,0.168-0.281
												c-0.059-1.471-0.475-2.916-1.246-4.102c-0.094-0.082-0.199-0.131-0.309-0.148c-0.07,0.018-0.139,0.045-0.209,0.082
												l-3.063,4.037c-0.025,0.076-0.041,0.154-0.055,0.234c0.006,0.035,0.016,0.07,0.025,0.105
												c0.055,0.059,0.115,0.111,0.178,0.15h4.397C318.201,144.48,318.24,144.455,318.275,144.424z"/>
											<path style="fill:#4C4C49;" d="M316.789,150.357c0.092,0.018,0.184,0.01,0.271-0.037c0.76-1.076,1.26-2.477,1.371-4.031
												c-0.023-0.146-0.066-0.279-0.137-0.396c-0.055-0.055-0.119-0.102-0.188-0.143l-4.328-0.1
												c-0.061,0.031-0.113,0.068-0.168,0.111c-0.014,0.031-0.027,0.064-0.039,0.1c0.006,0.092,0.02,0.184,0.039,0.271
												l3.057,4.17C316.707,150.326,316.746,150.344,316.789,150.357z"/>
											<path style="fill:#4C4C49;" d="M312.584,152.902c0.06,0.096,0.129,0.172,0.219,0.217
												c1.113-0.098,2.205-0.668,3.092-1.699c0.061-0.127,0.098-0.266,0.109-0.416c-0.016-0.086-0.035-0.18-0.065-0.268
												l-3.107-3.982c-0.057-0.031-0.115-0.055-0.176-0.07c-0.027,0.012-0.055,0.023-0.08,0.037
												c-0.047,0.072-0.082,0.15-0.113,0.236l0.063,5.797C312.543,152.805,312.563,152.854,312.584,152.902z"/>
											<polygon style="fill:#4C4C49;" points="312.08,144.994 312.08,144.994 312.08,144.994 											"/>
											<polygon style="fill:#4C4C49;" points="312.08,144.994 312.08,144.994 312.08,144.994 											"/>
										</g>
										<path style="fill:#D5D3CB;" d="M309.803,144.902c0,1.666,1.025,3.02,2.289,3.02c1.262,0,2.287-1.354,2.287-3.02
											c0-1.666-1.025-3.018-2.287-3.018C310.828,141.885,309.803,143.236,309.803,144.902z"/>
										<path style="fill:#4C4C49;" d="M310.607,143.418c0,0.207,0.129,0.377,0.287,0.377s0.285-0.17,0.285-0.377
											c0-0.207-0.127-0.375-0.285-0.375S310.607,143.211,310.607,143.418z"/>
										<path style="fill:#4C4C49;" d="M311.797,142.883c0,0.207,0.127,0.375,0.283,0.375c0.158,0,0.283-0.168,0.283-0.375
											c0-0.209-0.125-0.377-0.283-0.377C311.924,142.506,311.797,142.674,311.797,142.883z"/>
										<path style="fill:#4C4C49;" d="M313.002,143.477c0,0.207,0.129,0.375,0.287,0.375c0.156,0,0.283-0.168,0.283-0.375
											c0-0.207-0.127-0.375-0.283-0.375C313.131,143.102,313.002,143.27,313.002,143.477z"/>
										<path style="fill:#4C4C49;" d="M310.607,146.703c0-0.207,0.129-0.375,0.287-0.375s0.285,0.168,0.285,0.375
											c0,0.207-0.127,0.375-0.285,0.375S310.607,146.91,310.607,146.703z"/>
										<path style="fill:#4C4C49;" d="M310.051,145.133c0-0.207,0.127-0.373,0.285-0.373c0.156,0,0.285,0.166,0.285,0.373
											c0,0.209-0.129,0.375-0.285,0.375C310.178,145.508,310.051,145.342,310.051,145.133z"/>
										<path style="fill:#4C4C49;" d="M313.563,145.133c0-0.207,0.127-0.373,0.283-0.373c0.158,0,0.285,0.166,0.285,0.373
											c0,0.209-0.127,0.375-0.285,0.375C313.689,145.508,313.563,145.342,313.563,145.133z"/>
										<path style="fill:#4C4C49;" d="M311.797,147.238c0-0.209,0.127-0.373,0.283-0.373c0.158,0,0.283,0.164,0.283,0.373
											s-0.125,0.377-0.283,0.377C311.924,147.615,311.797,147.447,311.797,147.238z"/>
										<path style="fill:#4C4C49;" d="M313.002,146.645c0-0.205,0.129-0.375,0.287-0.375c0.156,0,0.283,0.17,0.283,0.375
											c0,0.209-0.127,0.377-0.283,0.377C313.131,147.021,313.002,146.854,313.002,146.645z"/>
									</g>
								</g>
							</g>
							<g>
								<path style="fill:#656362;" d="M311.957,129.305c6.836,0,12.377,7.424,12.377,16.582c0,1.963-0.256,3.844-0.723,5.59
									c0.67-2.025,1.043-4.262,1.043-6.615c0-9.158-5.631-16.582-12.576-16.582c-6.945,0-12.576,7.424-12.576,16.582
									c0,0.744,0.041,1.475,0.113,2.193c-0.02-0.387-0.035-0.773-0.035-1.168C299.58,136.729,305.123,129.305,311.957,129.305z"/>
							</g>
						</g>
						<g>
							<path d="M235.541,128.338v-0.02h-8.307v3.496c-2.953,3.035-4.857,7.768-4.857,13.088c0,5.322,1.904,10.053,4.857,13.09v3.496
								h7.719c6.945,0,12.576-7.426,12.576-16.586C247.529,136.004,242.213,128.742,235.541,128.338z"/>
							<g>
								<g>
									<path style="fill:#363635;" d="M214.912,144.902c0,9.16,5.631,16.586,12.578,16.586c6.943,0,12.574-7.426,12.574-16.586
										c0-9.158-5.631-16.584-12.574-16.584C220.543,128.318,214.912,135.744,214.912,144.902z"/>
									<path style="fill:#222222;" d="M214.912,144.902c0,9.16,5.631,16.586,12.578,16.586c6.943,0,12.574-7.426,12.574-16.586
										c0-9.158-5.631-16.584-12.574-16.584C220.543,128.318,214.912,135.744,214.912,144.902z"/>
									<g>
										<path d="M218.957,144.902c0,6.213,3.818,11.252,8.533,11.252c4.711,0,8.531-5.039,8.531-11.252
											c0-6.213-3.82-11.252-8.531-11.252C222.775,133.65,218.957,138.689,218.957,144.902z"/>
										<path style="fill:#D5D3CB;" d="M219.697,144.902c0,5.676,3.488,10.273,7.793,10.273c4.301,0,7.789-4.598,7.789-10.273
											c0-5.674-3.488-10.273-7.789-10.273C223.186,134.629,219.697,139.229,219.697,144.902z"/>
										<g>
											<path style="fill:#4C4C49;" d="M223.584,138.783c-0.014-0.121-0.006-0.24,0.031-0.359c0.83-0.982,1.9-1.617,3.08-1.738
												c0.111,0.033,0.211,0.094,0.299,0.188c0.039,0.076,0.074,0.158,0.104,0.248v5.713c-0.023,0.076-0.053,0.148-0.086,0.219
												c-0.023,0.016-0.049,0.033-0.074,0.049c-0.07-0.01-0.141-0.029-0.207-0.059l-3.109-4.102
												C223.605,138.891,223.594,138.836,223.584,138.783z"/>
											<path style="fill:#4C4C49;" d="M221.305,144.424c-0.074-0.072-0.131-0.166-0.168-0.281
												c0.059-1.471,0.473-2.916,1.246-4.102c0.096-0.082,0.199-0.131,0.311-0.148c0.068,0.018,0.139,0.045,0.205,0.082
												l3.064,4.037c0.023,0.076,0.043,0.154,0.057,0.234c-0.01,0.035-0.018,0.07-0.027,0.105
												c-0.055,0.059-0.113,0.111-0.178,0.15h-4.396C221.379,144.48,221.342,144.455,221.305,144.424z"/>
											<path style="fill:#4C4C49;" d="M222.791,150.357c-0.092,0.018-0.182,0.01-0.27-0.037
												c-0.762-1.076-1.262-2.477-1.373-4.031c0.021-0.146,0.066-0.279,0.137-0.396c0.057-0.055,0.119-0.102,0.188-0.143
												l4.33-0.1c0.057,0.031,0.113,0.068,0.166,0.111c0.012,0.031,0.027,0.064,0.037,0.1c-0.004,0.092-0.018,0.184-0.039,0.271
												l-3.053,4.17C222.873,150.326,222.834,150.344,222.791,150.357z"/>
											<path style="fill:#4C4C49;" d="M226.994,152.902c-0.059,0.096-0.127,0.172-0.217,0.217
												c-1.113-0.098-2.203-0.668-3.092-1.699c-0.061-0.127-0.098-0.266-0.107-0.416c0.014-0.086,0.035-0.18,0.061-0.268
												l3.109-3.982c0.059-0.031,0.117-0.055,0.178-0.07c0.025,0.012,0.053,0.023,0.08,0.037c0.045,0.072,0.08,0.15,0.113,0.236
												l-0.063,5.797C227.037,152.805,227.018,152.854,226.994,152.902z"/>
											<path style="fill:#4C4C49;" d="M231.396,138.783c0.01-0.121,0.002-0.24-0.035-0.359
												c-0.828-0.982-1.898-1.617-3.078-1.738c-0.111,0.033-0.213,0.094-0.301,0.188c-0.039,0.076-0.072,0.158-0.102,0.248
												v5.713c0.021,0.076,0.051,0.148,0.086,0.219c0.023,0.016,0.049,0.033,0.076,0.049c0.068-0.01,0.137-0.029,0.207-0.059
												l3.105-4.102C231.373,138.891,231.385,138.836,231.396,138.783z"/>
											<path style="fill:#4C4C49;" d="M233.674,144.424c0.072-0.072,0.131-0.166,0.166-0.281
												c-0.059-1.471-0.475-2.916-1.244-4.102c-0.094-0.082-0.199-0.131-0.311-0.148c-0.068,0.018-0.137,0.045-0.207,0.082
												l-3.063,4.037c-0.023,0.076-0.043,0.154-0.055,0.234c0.006,0.035,0.016,0.07,0.025,0.105
												c0.055,0.059,0.113,0.111,0.178,0.15h4.395C233.6,144.48,233.639,144.455,233.674,144.424z"/>
											<path style="fill:#4C4C49;" d="M232.186,150.357c0.094,0.018,0.186,0.01,0.271-0.037
												c0.762-1.076,1.262-2.477,1.371-4.031c-0.021-0.146-0.064-0.279-0.135-0.396c-0.057-0.055-0.119-0.102-0.188-0.143
												l-4.33-0.1c-0.059,0.031-0.113,0.068-0.166,0.111c-0.014,0.031-0.027,0.064-0.039,0.1
												c0.006,0.092,0.018,0.184,0.041,0.271l3.055,4.17C232.105,150.326,232.146,150.344,232.186,150.357z"/>
											<path style="fill:#4C4C49;" d="M227.982,152.902c0.061,0.096,0.129,0.172,0.219,0.217
												c1.113-0.098,2.205-0.668,3.09-1.699c0.063-0.127,0.098-0.266,0.111-0.416c-0.018-0.086-0.035-0.18-0.064-0.268
												l-3.107-3.982c-0.057-0.031-0.117-0.055-0.176-0.07c-0.029,0.012-0.055,0.023-0.082,0.037
												c-0.045,0.072-0.08,0.15-0.111,0.236l0.063,5.797C227.941,152.805,227.961,152.854,227.982,152.902z"/>
											<polygon style="fill:#4C4C49;" points="227.479,144.994 227.479,144.994 227.479,144.994 											"/>
											<polygon style="fill:#4C4C49;" points="227.479,144.994 227.479,144.994 227.479,144.994 											"/>
										</g>
										<path style="fill:#D5D3CB;" d="M225.201,144.902c0,1.666,1.023,3.02,2.289,3.02c1.264,0,2.287-1.354,2.287-3.02
											c0-1.666-1.023-3.018-2.287-3.018C226.225,141.885,225.201,143.236,225.201,144.902z"/>
										<path style="fill:#4C4C49;" d="M226.006,143.418c0,0.207,0.129,0.377,0.287,0.377c0.158,0,0.283-0.17,0.283-0.377
											c0-0.207-0.125-0.375-0.283-0.375C226.135,143.043,226.006,143.211,226.006,143.418z"/>
										<path style="fill:#4C4C49;" d="M227.193,142.883c0,0.207,0.129,0.375,0.285,0.375c0.158,0,0.283-0.168,0.283-0.375
											c0-0.209-0.125-0.377-0.283-0.377C227.322,142.506,227.193,142.674,227.193,142.883z"/>
										<path style="fill:#4C4C49;" d="M228.4,143.477c0,0.207,0.129,0.375,0.285,0.375c0.158,0,0.285-0.168,0.285-0.375
											c0-0.207-0.127-0.375-0.285-0.375C228.529,143.102,228.4,143.27,228.4,143.477z"/>
										<path style="fill:#4C4C49;" d="M226.006,146.703c0-0.207,0.129-0.375,0.287-0.375c0.158,0,0.283,0.168,0.283,0.375
											c0,0.207-0.125,0.375-0.283,0.375C226.135,147.078,226.006,146.91,226.006,146.703z"/>
										<path style="fill:#4C4C49;" d="M225.449,145.133c0-0.207,0.127-0.373,0.285-0.373c0.158,0,0.285,0.166,0.285,0.373
											c0,0.209-0.127,0.375-0.285,0.375C225.576,145.508,225.449,145.342,225.449,145.133z"/>
										<path style="fill:#4C4C49;" d="M228.961,145.133c0-0.207,0.125-0.373,0.283-0.373c0.158,0,0.285,0.166,0.285,0.373
											c0,0.209-0.127,0.375-0.285,0.375C229.086,145.508,228.961,145.342,228.961,145.133z"/>
										<path style="fill:#4C4C49;" d="M227.193,147.238c0-0.209,0.129-0.373,0.285-0.373c0.158,0,0.283,0.164,0.283,0.373
											s-0.125,0.377-0.283,0.377C227.322,147.615,227.193,147.447,227.193,147.238z"/>
										<path style="fill:#4C4C49;" d="M228.4,146.645c0-0.205,0.129-0.375,0.285-0.375c0.158,0,0.285,0.17,0.285,0.375
											c0,0.209-0.127,0.377-0.285,0.377C228.529,147.021,228.4,146.854,228.4,146.645z"/>
									</g>
								</g>
							</g>
							<g>
								<path style="fill:#656362;" d="M227.355,129.305c6.836,0,12.377,7.424,12.377,16.582c0,1.963-0.258,3.844-0.723,5.59
									c0.67-2.025,1.043-4.262,1.043-6.615c0-9.158-5.631-16.582-12.576-16.582c-6.945,0-12.576,7.424-12.576,16.582
									c0,0.744,0.041,1.475,0.113,2.193c-0.021-0.387-0.035-0.773-0.035-1.168C214.979,136.729,220.52,129.305,227.355,129.305z"
									/>
							</g>
						</g>
					</g>
					<g>
						<path style="fill:#D4D3C5;" d="M342.27,125.221c-0.055-0.781-0.107-1.559-0.172-2.33c-0.201-2.344-0.357-4.217-1.645-6.307
							c-2.744-2.557-5.543-4.822-8.299-6.834c-2.434-4.676-27.096-47.648-37.92-52.395c-0.373-0.164-15.352-3.734-19.828-4.52
							c-6.234-1.096-12.506-1.555-18.762-1.994c-6.297-0.443-53.957-3.037-60.26-3.082c-1.148-0.01-25.119,2.031-25.533,4.178
							c-15.322,79.545-8.203,98.426-8.203,98.426h175.975c3.162-6.967,1.596-3.93,4.236-9.301
							C343.678,137.367,342.709,129.004,342.27,125.221z"/>
					</g>
					<g>
						<path style="fill:#545650;" d="M283.221,138.359c0.053-4.891-1.084-9.631-3.955-13.654c-1.678-2.352-3.742-4.326-6.068-5.963
							H160.479c-1.555,24.381,1.17,31.621,1.17,31.621h119.738C282.295,146.418,283.18,142.416,283.221,138.359z"/>
					</g>
					<g>
						<g>
							<path d="M269.752,128.338v-0.02h-8.305v3.496c-2.955,3.035-4.857,7.768-4.857,13.088c0,5.322,1.902,10.053,4.857,13.09v3.496
								h7.719c6.945,0,12.576-7.426,12.576-16.586C281.742,136.004,276.426,128.742,269.752,128.338z"/>
							<g>
								<g>
									<path style="fill:#363635;" d="M249.127,144.902c0,9.16,5.629,16.586,12.574,16.586c6.945,0,12.576-7.426,12.576-16.586
										c0-9.158-5.631-16.584-12.576-16.584C254.756,128.318,249.127,135.744,249.127,144.902z"/>
									<path style="fill:#222222;" d="M249.127,144.902c0,9.16,5.629,16.586,12.574,16.586c6.945,0,12.576-7.426,12.576-16.586
										c0-9.158-5.631-16.584-12.576-16.584C254.756,128.318,249.127,135.744,249.127,144.902z"/>
									<g>
										<path d="M253.168,144.902c0,6.213,3.82,11.252,8.535,11.252c4.711,0,8.531-5.039,8.531-11.252
											c0-6.213-3.82-11.252-8.531-11.252C256.988,133.65,253.168,138.689,253.168,144.902z"/>
										<path style="fill:#D5D3CB;" d="M253.91,144.902c0,5.676,3.488,10.273,7.793,10.273c4.301,0,7.787-4.598,7.787-10.273
											c0-5.674-3.486-10.273-7.787-10.273C257.398,134.629,253.91,139.229,253.91,144.902z"/>
										<g>
											<path style="fill:#4C4C49;" d="M257.797,138.783c-0.014-0.121-0.006-0.24,0.031-0.359c0.83-0.982,1.898-1.617,3.08-1.738
												c0.111,0.033,0.209,0.094,0.297,0.188c0.041,0.076,0.076,0.158,0.105,0.248v5.713c-0.023,0.076-0.053,0.148-0.086,0.219
												c-0.025,0.016-0.049,0.033-0.074,0.049c-0.072-0.01-0.141-0.029-0.207-0.059l-3.109-4.102
												C257.818,138.891,257.807,138.836,257.797,138.783z"/>
											<path style="fill:#4C4C49;" d="M255.518,144.424c-0.072-0.072-0.131-0.166-0.168-0.281
												c0.059-1.471,0.475-2.916,1.244-4.102c0.096-0.082,0.201-0.131,0.313-0.148c0.068,0.018,0.139,0.045,0.205,0.082
												l3.065,4.037c0.023,0.076,0.043,0.154,0.055,0.234c-0.006,0.035-0.018,0.07-0.025,0.105
												c-0.055,0.059-0.113,0.111-0.178,0.15h-4.398C255.592,144.48,255.555,144.455,255.518,144.424z"/>
											<path style="fill:#4C4C49;" d="M257.004,150.357c-0.092,0.018-0.182,0.01-0.27-0.037
												c-0.762-1.076-1.262-2.477-1.375-4.031c0.023-0.146,0.068-0.279,0.137-0.396c0.059-0.055,0.119-0.102,0.189-0.143
												l4.33-0.1c0.057,0.031,0.111,0.068,0.166,0.111c0.012,0.031,0.027,0.064,0.037,0.1c-0.004,0.092-0.017,0.184-0.039,0.271
												l-3.053,4.17C257.086,150.326,257.045,150.344,257.004,150.357z"/>
											<path style="fill:#4C4C49;" d="M261.205,152.902c-0.057,0.096-0.127,0.172-0.215,0.217
												c-1.113-0.098-2.205-0.668-3.092-1.699c-0.061-0.127-0.098-0.266-0.107-0.416c0.014-0.086,0.035-0.18,0.061-0.268
												l3.109-3.982c0.057-0.031,0.117-0.055,0.176-0.07c0.027,0.012,0.055,0.023,0.08,0.037
												c0.045,0.072,0.082,0.15,0.113,0.236l-0.061,5.797C261.25,152.805,261.228,152.854,261.205,152.902z"/>
											<path style="fill:#4C4C49;" d="M265.609,138.783c0.01-0.121,0.002-0.24-0.035-0.359
												c-0.828-0.982-1.898-1.617-3.078-1.738c-0.111,0.033-0.213,0.094-0.301,0.188c-0.039,0.076-0.072,0.158-0.104,0.248
												v5.713c0.023,0.076,0.053,0.148,0.088,0.219c0.023,0.016,0.049,0.033,0.074,0.049c0.07-0.01,0.141-0.029,0.209-0.059
												l3.107-4.102C265.586,138.891,265.6,138.836,265.609,138.783z"/>
											<path style="fill:#4C4C49;" d="M267.885,144.424c0.074-0.072,0.133-0.166,0.17-0.281
												c-0.059-1.471-0.477-2.916-1.246-4.102c-0.094-0.082-0.199-0.131-0.311-0.148c-0.07,0.018-0.137,0.045-0.207,0.082
												l-3.064,4.037c-0.023,0.076-0.041,0.154-0.053,0.234c0.004,0.035,0.016,0.07,0.025,0.105
												c0.055,0.059,0.113,0.111,0.178,0.15h4.397C267.81,144.48,267.852,144.455,267.885,144.424z"/>
											<path style="fill:#4C4C49;" d="M266.398,150.357c0.094,0.018,0.184,0.01,0.271-0.037
												c0.762-1.076,1.262-2.477,1.373-4.031c-0.023-0.146-0.066-0.279-0.137-0.396c-0.057-0.055-0.119-0.102-0.188-0.143
												l-4.328-0.1c-0.06,0.031-0.115,0.068-0.17,0.111c-0.012,0.031-0.025,0.064-0.037,0.1
												c0.006,0.092,0.018,0.184,0.039,0.271l3.055,4.17C266.318,150.326,266.357,150.344,266.398,150.357z"/>
											<path style="fill:#4C4C49;" d="M262.195,152.902c0.059,0.096,0.129,0.172,0.219,0.217
												c1.111-0.098,2.205-0.668,3.092-1.699c0.061-0.127,0.096-0.266,0.109-0.416c-0.016-0.086-0.037-0.18-0.066-0.268
												l-3.105-3.982c-0.057-0.031-0.117-0.055-0.176-0.07c-0.029,0.012-0.055,0.023-0.082,0.037
												c-0.045,0.072-0.08,0.15-0.111,0.236l0.063,5.797C262.154,152.805,262.174,152.854,262.195,152.902z"/>
											<polygon style="fill:#4C4C49;" points="261.691,144.994 261.691,144.994 261.691,144.994 											"/>
											<polygon style="fill:#4C4C49;" points="261.691,144.994 261.691,144.994 261.691,144.994 											"/>
										</g>
										<path style="fill:#D5D3CB;" d="M259.412,144.902c0,1.666,1.025,3.02,2.291,3.02c1.262,0,2.287-1.354,2.287-3.02
											c0-1.666-1.025-3.018-2.287-3.018C260.438,141.885,259.412,143.236,259.412,144.902z"/>
										<path style="fill:#4C4C49;" d="M260.219,143.418c0,0.207,0.129,0.377,0.287,0.377c0.156,0,0.283-0.17,0.283-0.377
											c0-0.207-0.127-0.375-0.283-0.375C260.348,143.043,260.219,143.211,260.219,143.418z"/>
										<path style="fill:#4C4C49;" d="M261.408,142.883c0,0.207,0.127,0.375,0.283,0.375c0.156,0,0.283-0.168,0.283-0.375
											c0-0.209-0.127-0.377-0.283-0.377C261.535,142.506,261.408,142.674,261.408,142.883z"/>
										<path style="fill:#4C4C49;" d="M262.613,143.477c0,0.207,0.129,0.375,0.285,0.375c0.156,0,0.285-0.168,0.285-0.375
											c0-0.207-0.129-0.375-0.285-0.375C262.742,143.102,262.613,143.27,262.613,143.477z"/>
										<path style="fill:#4C4C49;" d="M260.219,146.703c0-0.207,0.129-0.375,0.287-0.375c0.156,0,0.283,0.168,0.283,0.375
											c0,0.207-0.127,0.375-0.283,0.375C260.348,147.078,260.219,146.91,260.219,146.703z"/>
										<path style="fill:#4C4C49;" d="M259.662,145.133c0-0.207,0.127-0.373,0.285-0.373c0.156,0,0.283,0.166,0.283,0.373
											c0,0.209-0.127,0.375-0.283,0.375C259.789,145.508,259.662,145.342,259.662,145.133z"/>
										<path style="fill:#4C4C49;" d="M263.174,145.133c0-0.207,0.125-0.373,0.281-0.373c0.16,0,0.287,0.166,0.287,0.373
											c0,0.209-0.127,0.375-0.287,0.375C263.299,145.508,263.174,145.342,263.174,145.133z"/>
										<path style="fill:#4C4C49;" d="M261.408,147.238c0-0.209,0.127-0.373,0.283-0.373c0.156,0,0.283,0.164,0.283,0.373
											s-0.127,0.377-0.283,0.377C261.535,147.615,261.408,147.447,261.408,147.238z"/>
										<path style="fill:#4C4C49;" d="M262.613,146.645c0-0.205,0.129-0.375,0.285-0.375c0.156,0,0.285,0.17,0.285,0.375
											c0,0.209-0.129,0.377-0.285,0.377C262.742,147.021,262.613,146.854,262.613,146.645z"/>
									</g>
								</g>
							</g>
							<g>
								<path style="fill:#656362;" d="M261.568,129.305c6.834,0,12.377,7.424,12.377,16.582c0,1.963-0.258,3.844-0.723,5.59
									c0.668-2.025,1.041-4.262,1.041-6.615c0-9.158-5.629-16.582-12.574-16.582c-6.945,0-12.576,7.424-12.576,16.582
									c0,0.744,0.041,1.475,0.113,2.193c-0.021-0.387-0.035-0.773-0.035-1.168C249.191,136.729,254.732,129.305,261.568,129.305z"
									/>
							</g>
						</g>
						<g>
							<path d="M185.152,128.338v-0.02h-8.307v3.496c-2.955,3.035-4.857,7.768-4.857,13.088c0,5.322,1.902,10.053,4.857,13.09v3.496
								h7.719c6.943,0,12.576-7.426,12.576-16.586C197.141,136.004,191.822,128.742,185.152,128.338z"/>
							<g>
								<g>
									<path style="fill:#363635;" d="M164.525,144.902c0,9.16,5.629,16.586,12.574,16.586c6.945,0,12.576-7.426,12.576-16.586
										c0-9.158-5.631-16.584-12.576-16.584C170.154,128.318,164.525,135.744,164.525,144.902z"/>
									<path style="fill:#222222;" d="M164.525,144.902c0,9.16,5.629,16.586,12.574,16.586c6.945,0,12.576-7.426,12.576-16.586
										c0-9.158-5.631-16.584-12.576-16.584C170.154,128.318,164.525,135.744,164.525,144.902z"/>
									<g>
										<path d="M168.568,144.902c0,6.213,3.818,11.252,8.533,11.252c4.711,0,8.531-5.039,8.531-11.252
											c0-6.213-3.82-11.252-8.531-11.252C172.387,133.65,168.568,138.689,168.568,144.902z"/>
										<path style="fill:#D5D3CB;" d="M169.309,144.902c0,5.676,3.488,10.273,7.793,10.273c4.303,0,7.789-4.598,7.789-10.273
											c0-5.674-3.486-10.273-7.789-10.273C172.797,134.629,169.309,139.229,169.309,144.902z"/>
										<g>
											<path style="fill:#4C4C49;" d="M173.193,138.783c-0.012-0.121-0.004-0.24,0.033-0.359
												c0.828-0.982,1.898-1.617,3.08-1.738c0.111,0.033,0.209,0.094,0.299,0.188c0.041,0.076,0.072,0.158,0.104,0.248v5.713
												c-0.023,0.076-0.053,0.148-0.086,0.219c-0.023,0.016-0.049,0.033-0.074,0.049c-0.072-0.01-0.141-0.029-0.207-0.059
												l-3.109-4.102C173.217,138.891,173.203,138.836,173.193,138.783z"/>
											<path style="fill:#4C4C49;" d="M170.916,144.424c-0.074-0.072-0.133-0.166-0.168-0.281
												c0.059-1.471,0.473-2.916,1.244-4.102c0.096-0.082,0.201-0.131,0.313-0.148c0.066,0.018,0.137,0.045,0.205,0.082
												l3.064,4.037c0.023,0.076,0.043,0.154,0.055,0.234c-0.008,0.035-0.018,0.07-0.025,0.105
												c-0.057,0.059-0.115,0.111-0.178,0.15h-4.396C170.99,144.48,170.951,144.455,170.916,144.424z"/>
											<path style="fill:#4C4C49;" d="M172.402,150.357c-0.092,0.018-0.182,0.01-0.271-0.037
												c-0.76-1.076-1.26-2.477-1.371-4.031c0.021-0.146,0.064-0.279,0.135-0.396c0.057-0.055,0.119-0.102,0.188-0.143l4.33-0.1
												c0.059,0.031,0.113,0.068,0.168,0.111c0.012,0.031,0.027,0.064,0.037,0.1c-0.006,0.092-0.018,0.184-0.039,0.271
												l-3.053,4.17C172.484,150.326,172.443,150.344,172.402,150.357z"/>
											<path style="fill:#4C4C49;" d="M176.605,152.902c-0.059,0.096-0.129,0.172-0.217,0.217
												c-1.113-0.098-2.205-0.668-3.092-1.699c-0.061-0.127-0.098-0.266-0.107-0.416c0.014-0.086,0.035-0.18,0.061-0.268
												l3.107-3.982c0.059-0.031,0.117-0.055,0.178-0.07c0.027,0.012,0.055,0.023,0.082,0.037
												c0.043,0.072,0.08,0.15,0.111,0.236l-0.061,5.797C176.648,152.805,176.627,152.854,176.605,152.902z"/>
											<path style="fill:#4C4C49;" d="M181.006,138.783c0.012-0.121,0.004-0.24-0.033-0.359c-0.83-0.982-1.9-1.617-3.08-1.738
												c-0.109,0.033-0.211,0.094-0.299,0.188c-0.039,0.076-0.072,0.158-0.102,0.248v5.713c0.021,0.076,0.051,0.148,0.084,0.219
												c0.023,0.016,0.051,0.033,0.076,0.049c0.07-0.01,0.139-0.029,0.209-0.059l3.105-4.102
												C180.984,138.891,180.996,138.836,181.006,138.783z"/>
											<path style="fill:#4C4C49;" d="M183.283,144.424c0.074-0.072,0.133-0.166,0.168-0.281
												c-0.057-1.471-0.475-2.916-1.246-4.102c-0.092-0.082-0.197-0.131-0.307-0.148c-0.072,0.018-0.139,0.045-0.209,0.082
												l-3.064,4.037c-0.023,0.076-0.041,0.154-0.053,0.234c0.006,0.035,0.016,0.07,0.025,0.105
												c0.053,0.059,0.113,0.111,0.178,0.15h4.395C183.209,144.48,183.25,144.455,183.283,144.424z"/>
											<path style="fill:#4C4C49;" d="M181.797,150.357c0.092,0.018,0.184,0.01,0.271-0.037
												c0.762-1.076,1.262-2.477,1.373-4.031c-0.021-0.146-0.068-0.279-0.137-0.396c-0.057-0.055-0.121-0.102-0.188-0.143
												l-4.33-0.1c-0.059,0.031-0.113,0.068-0.168,0.111c-0.012,0.031-0.025,0.064-0.037,0.1
												c0.006,0.092,0.018,0.184,0.039,0.271l3.055,4.17C181.717,150.326,181.756,150.344,181.797,150.357z"/>
											<path style="fill:#4C4C49;" d="M177.594,152.902c0.059,0.096,0.129,0.172,0.219,0.217
												c1.113-0.098,2.205-0.668,3.09-1.699c0.063-0.127,0.098-0.266,0.109-0.416c-0.016-0.086-0.033-0.18-0.064-0.268
												l-3.105-3.982c-0.057-0.031-0.117-0.055-0.178-0.07c-0.027,0.012-0.053,0.023-0.078,0.037
												c-0.047,0.072-0.082,0.15-0.115,0.236l0.063,5.797C177.553,152.805,177.572,152.854,177.594,152.902z"/>
											<polygon style="fill:#4C4C49;" points="177.09,144.994 177.09,144.994 177.09,144.994 											"/>
											<polygon style="fill:#4C4C49;" points="177.09,144.994 177.09,144.994 177.09,144.994 											"/>
										</g>
										<path style="fill:#D5D3CB;" d="M174.811,144.902c0,1.666,1.025,3.02,2.291,3.02c1.262,0,2.285-1.354,2.285-3.02
											c0-1.666-1.023-3.018-2.285-3.018C175.836,141.885,174.811,143.236,174.811,144.902z"/>
										<path style="fill:#4C4C49;" d="M175.617,143.418c0,0.207,0.129,0.377,0.285,0.377c0.158,0,0.285-0.17,0.285-0.377
											c0-0.207-0.127-0.375-0.285-0.375C175.746,143.043,175.617,143.211,175.617,143.418z"/>
										<path style="fill:#4C4C49;" d="M176.805,142.883c0,0.207,0.129,0.375,0.285,0.375c0.156,0,0.285-0.168,0.285-0.375
											c0-0.209-0.129-0.377-0.285-0.377C176.934,142.506,176.805,142.674,176.805,142.883z"/>
										<path style="fill:#4C4C49;" d="M178.012,143.477c0,0.207,0.127,0.375,0.285,0.375c0.156,0,0.285-0.168,0.285-0.375
											c0-0.207-0.129-0.375-0.285-0.375C178.139,143.102,178.012,143.27,178.012,143.477z"/>
										<path style="fill:#4C4C49;" d="M175.617,146.703c0-0.207,0.129-0.375,0.285-0.375c0.158,0,0.285,0.168,0.285,0.375
											c0,0.207-0.127,0.375-0.285,0.375C175.746,147.078,175.617,146.91,175.617,146.703z"/>
										<path style="fill:#4C4C49;" d="M175.059,145.133c0-0.207,0.129-0.373,0.287-0.373c0.156,0,0.283,0.166,0.283,0.373
											c0,0.209-0.127,0.375-0.283,0.375C175.188,145.508,175.059,145.342,175.059,145.133z"/>
										<path style="fill:#4C4C49;" d="M178.572,145.133c0-0.207,0.127-0.373,0.283-0.373c0.158,0,0.285,0.166,0.285,0.373
											c0,0.209-0.127,0.375-0.285,0.375C178.699,145.508,178.572,145.342,178.572,145.133z"/>
										<path style="fill:#4C4C49;" d="M176.805,147.238c0-0.209,0.129-0.373,0.285-0.373c0.156,0,0.285,0.164,0.285,0.373
											s-0.129,0.377-0.285,0.377C176.934,147.615,176.805,147.447,176.805,147.238z"/>
										<path style="fill:#4C4C49;" d="M178.012,146.645c0-0.205,0.127-0.375,0.285-0.375c0.156,0,0.285,0.17,0.285,0.375
											c0,0.209-0.129,0.377-0.285,0.377C178.139,147.021,178.012,146.854,178.012,146.645z"/>
									</g>
								</g>
							</g>
							<g>
								<path style="fill:#656362;" d="M176.967,129.305c6.834,0,12.375,7.424,12.375,16.582c0,1.963-0.256,3.844-0.721,5.59
									c0.67-2.025,1.043-4.262,1.043-6.615c0-9.158-5.631-16.582-12.576-16.582c-6.945,0-12.576,7.424-12.576,16.582
									c0,0.744,0.041,1.475,0.111,2.193c-0.02-0.387-0.033-0.773-0.033-1.168C164.59,136.729,170.131,129.305,176.967,129.305z"/>
							</g>
						</g>
					</g>
					<g>
						<path style="fill:#E8E6D6;" d="M289.031,125.221c-0.053-0.781-0.105-1.559-0.172-2.33c-0.199-2.344-0.355-4.217-1.643-6.307
							c-2.744-2.557-5.543-4.822-8.301-6.834c-2.434-4.676-27.094-47.648-37.92-52.395c-0.371-0.164-15.35-3.734-19.826-4.52
							c-6.234-1.096-12.506-1.555-18.762-1.994c-6.297-0.443-12.605-0.414-18.906-0.461c-4.604-0.035-5.656,0.715-10.258,0.75
							c-6.086,0.049-6.273,3.744-13.463,17.641c-6.924,13.383-8.717,22.32-8.717,22.32l0.029,0.006l-2.393,32.717l-2.1,7.537
							l2.148,12.184l10.953,6.828h3.863c-0.865-2.242-1.352-4.719-1.352-7.328c0-10.049,7.137-18.195,15.938-18.195
							s15.938,8.146,15.938,18.195c0,2.609-0.484,5.086-1.35,7.328h55.805c-0.863-2.242-1.352-4.719-1.352-7.328
							c0-10.049,7.139-18.195,15.94-18.195c8.801,0,15.938,8.146,15.938,18.195c0,2.609-0.486,5.086-1.352,7.328h6.668
							c3.16-6.967,1.596-3.93,4.234-9.301C290.441,137.367,289.473,129.004,289.031,125.221z"/>
					</g>
					<g style="opacity:0.6;">
						<path style="fill:#BABAAE;" d="M149.031,143.711l10.672,6.652h3.863c-0.791-2.047-1.26-4.291-1.336-6.652H149.031z"/>
						<path style="fill:#BABAAE;" d="M279.053,143.711c-0.074,2.361-0.543,4.605-1.334,6.652h6.668
							c2.41-5.313,2.074-4.811,2.949-6.652H279.053z"/>
						<path style="fill:#BABAAE;" d="M194.074,143.711c-0.076,2.361-0.545,4.605-1.334,6.652h55.805
							c-0.789-2.047-1.258-4.291-1.334-6.652H194.074z"/>
					</g>
					<g>
						<path d="M167.172,102.619l99.08,6.428c0,0,6.66,0.877,4.44-4.09c-2.221-4.967-20.537-40.322-29.695-42.367
							c-9.158-2.045-43.852-8.18-58.838-7.305c0,0-8.773-0.359-12.574,6.98c0,0-8.24,19.316-10.184,24.869
							C157.457,92.686,157.734,101.451,167.172,102.619z"/>
						<path style="fill:#00384B;" d="M267.43,103.227c-2.111-4.566-19.545-37.078-28.26-38.961
							c-6.934-1.496-29.227-5.367-45.242-6.486c-0.818,9.242-4.084,38.937-4.586,44.58l73.863,4.629
							C263.205,106.988,269.545,107.795,267.43,103.227z"/>
						<path style="fill:#00384B;" d="M187.541,57.482c-1.594-0.027-3.061-0.008-4.369,0.066c0,0-8.352-0.33-11.967,6.418
							c0,0-7.844,17.764-9.693,22.871c-1.85,5.105-1.586,13.164,7.396,14.238l9.43,0.592
							C179.27,96.467,185.494,67.033,187.541,57.482z"/>
					</g>
					<path d="M165.879,56.322c0,0-12.744,20.223-14.547,30.127c0,0-1.445,10.625-0.619,10.936
						c1.168,0.439,14.678-35.543,14.678-35.543S166.498,57.354,165.879,56.322z"/>
					<path style="fill:#00384B;" d="M165.055,57.625c0,0-12.08,18.895-13.723,27.916c0,0-1.316,9.678-0.564,9.959
						c1.064,0.4,13.367-32.371,13.367-32.371S165.617,58.564,165.055,57.625z"/>
					<g>
						<path d="M329.367,102.297l-4.805,2.594c0,0-2.482,1.555-1.441,3.523c0,0,0.064,0.643,1.875,0.689
							c1.809,0.049,6.422-2.787,6.422-2.787L329.367,102.297z"/>
						<g>
							<g>
								<path style="fill:#484747;" d="M336.16,99.496c-0.873-2.93-5.324-2.518-5.332-2.518c-1.906,0.17-3.348,2.484-4.428,4.945
									c-1.248,2.838-0.32,8.637,2.023,8.098c2.686-0.619,1.66-0.16,6.008-1.689C335.566,107.934,337.227,103.064,336.16,99.496z"
									/>
							</g>
							<g>
								<path style="fill:#353535;" d="M336.16,99.496c-0.078-0.268-0.189-0.508-0.324-0.721c0.047,1.373-0.205,2.738-0.994,3.807
									c-0.988,1.33-2.432,2.023-3.832,2.492c-0.844,0.281-1.672,0.637-2.531,0.84c-0.685,0.166-1.617,0.385-2.256-0.088
									c-0.142-0.107-0.267-0.229-0.369-0.361c0.09,2.496,1.02,4.916,2.57,4.557c2.686-0.619,1.66-0.16,6.008-1.689
									C335.566,107.934,337.227,103.064,336.16,99.496z"/>
							</g>
						</g>
					</g>
					<path style="fill:#FFFDEB;" d="M293.814,120.496c-1.994-2.986-11.803-10.266-10.369-4.107
						c1.438,6.16,4.947,16.797,6.381,16.797c0.793,0,5.709,0.678,6.773-2.475C297.461,128.154,294.705,121.834,293.814,120.496z"/>
					<path style="fill:#FFFDEB;" d="M293.814,120.496c-1.994-2.986-11.803-10.266-10.369-4.107
						c1.438,6.16,4.947,16.797,6.381,16.797c0.793,0,5.709,0.678,6.773-2.475C297.461,128.154,294.705,121.834,293.814,120.496z"/>
					<g>
						<path style="fill:#ADAFB2;" d="M293.814,120.496c-1.994-2.986-11.803-10.266-10.369-4.107
							c1.438,6.16,4.947,16.797,6.381,16.797c0.793,0,5.709,0.678,6.773-2.475C297.461,128.154,294.705,121.834,293.814,120.496z
							 M296.197,130.676c-0.949,2.811-5.332,2.209-6.037,2.209c-1.281,0-4.408-9.486-5.689-14.977c-1.279-5.49,7.465,1,9.242,3.662
							C294.508,122.762,296.965,128.396,296.197,130.676z"/>
					</g>
					<path style="fill:#ADAFB2;" d="M341.439,118.328c-0.299-0.672-0.535-1.168-0.947-1.701c-0.256-0.332-0.59-0.631-1.09-1.057
						c-1.178,0.934-2.623,4.379-2.797,5.113c-0.225,0.963,0.746,9.201,3.559,11.42c0.209,0.164,0.836,0.799,2.863,1.004
						C342.947,131.656,342.33,120.32,341.439,118.328z"/>
					<path style="fill:#FFFDEB;" d="M341.611,119.271c-0.268-0.631-0.478-1.094-0.846-1.592c-0.228-0.313-0.525-0.59-0.973-0.99
						c-1.049,0.873-2.34,4.1-2.494,4.789c-0.199,0.898,0.666,8.611,3.174,10.689c0.186,0.154,0.746,0.748,2.555,0.939
						C342.955,131.75,342.404,121.137,341.611,119.271z"/>
					<g>
						<path style="fill:#ADAFB2;" d="M178.152,117.842c-10.6,0-19.193,10.32-19.193,23.051c0,3.377,0.611,6.582,1.695,9.471h2.912
							c-0.865-2.242-1.352-4.719-1.352-7.328c0-10.049,7.137-18.195,15.938-18.195s15.938,8.146,15.938,18.195
							c0,2.609-0.484,5.086-1.35,7.328h2.908c1.088-2.889,1.697-6.094,1.697-9.471C197.346,128.162,188.752,117.842,178.152,117.842
							z"/>
						<path style="fill:#535658;" d="M188.766,122.738c3.578,3.316,6.324,8.922,7.131,14.264c0.693,4.574,0.52,9.111-1.184,13.361
							h0.936c1.088-2.889,1.697-6.094,1.697-9.471c0-12.73-8.594-23.051-19.193-23.051c-3.041,0-5.916,0.852-8.471,2.365
							C176.129,117.688,183.334,117.701,188.766,122.738z"/>
						<path style="fill:#FFFFFF;" d="M178.072,118.717c0,0-11.211-0.078-16.707,12.611c0,0-4.123,8.461-0.086,18.777
							C161.279,150.105,154.621,125.629,178.072,118.717z"/>
					</g>
					<g>
						<g>
							<g>
								<g>
									<path style="fill:#ADAFB2;" d="M263.133,117.842c-10.602,0-19.193,10.32-19.193,23.051c0,3.377,0.609,6.582,1.695,9.471
										h2.91c-0.863-2.242-1.352-4.719-1.352-7.328c0-10.049,7.139-18.195,15.94-18.195c8.801,0,15.938,8.146,15.938,18.195
										c0,2.609-0.486,5.086-1.352,7.328h2.91c1.088-2.889,1.697-6.094,1.697-9.471
										C282.326,128.162,273.732,117.842,263.133,117.842z"/>
								</g>
								<path style="fill:#535658;" d="M266.935,119.203c3.904,1.453,7.574,3.674,10.162,7.586c2.465,3.726,3.9,8.133,4.072,12.898
									c0.096,2.652,0.018,5.428-0.727,7.959c-0.275,0.934-0.611,1.834-0.975,2.717h1.16c1.088-2.889,1.697-6.094,1.697-9.471
									c0-12.73-8.594-23.051-19.193-23.051c-2.389,0-4.676,0.529-6.787,1.486c1.285-0.314,2.564-0.678,3.869-0.879
									C262.5,118.098,264.736,118.385,266.935,119.203z"/>
							</g>
						</g>
						<path style="fill:#FFFFFF;" d="M263.117,118.717c0,0-11.211-0.078-16.707,12.611c0,0-4.123,8.461-0.086,18.777
							C246.324,150.105,239.666,125.629,263.117,118.717z"/>
					</g>
					<path style="fill:#434342;" d="M286.668,151.551c0,0,46.377-0.309,47.322,0h2.662c0,0,1.031-0.412,2.063-2.063
						c1.031-1.65,4.639-7.119,4.896-8.666c0.258-1.549-0.172-5.365-0.172-5.365s-0.172-0.93-1.719-0.93
						c-1.545,0-49.918,0.025-49.918,0.025L286.668,151.551z"/>
					<path style="fill:#333333;" d="M289.789,142.473c-0.186,0-0.283-0.137-0.293-0.281l-2.828,9.359c0,0,46.377-0.309,47.322,0
						h2.662c0,0,1.031-0.412,2.063-2.063c0.789-1.262,3.078-4.75,4.228-7.016H289.789z"/>
					<path style="fill:#272727;" d="M287.06,140.408l-3.521,10.316c0,0-0.43,0.518,0.516,0.826h2.662c0,0,1.031-0.412,2.063-2.063
						c1.031-1.65,4.639-7.119,4.897-8.666c0.258-1.549-0.172-5.365-0.172-5.365s-0.172-0.93-1.719-0.93c-1.545,0-2.189,0-2.189,0
						s-1.246,0.518-1.504,1.756C287.834,137.52,287.06,140.408,287.06,140.408z"/>
					<path style="fill:#222222;" d="M293.93,135.43l0.309,5.031c0,0-0.037,1.121,0.891,1.16h46.506c0,0,1.354-0.039,1.623-0.891
						c0,0,0.193-0.387,0.156-1.393c-0.039-1.006-0.156-3.404-0.271-3.908c-0.115-0.502-1.006-0.619-1.547-0.656l-46.971-0.039
						C294.625,134.734,293.814,134.889,293.93,135.43z"/>
					<g>
						<path d="M326.978,102.133l-51.025,0.137c0.838,1.369,1.613,2.658,2.295,3.828c0,0,3.697,6.416,8.842,6.852
							c2.578,0.217,30.541,2.129,42.309-1.662c0,0,2.068-0.92,0.639-4.02C329.785,106.723,328.246,104.227,326.978,102.133z"/>
						<path style="fill:#00384B;" d="M295.635,61.402L253.08,60.43c0,0-4.025,0.447-1.566,3.965
							c2.461,3.52,17.42,25.873,24.074,37.254c0,0,3.695,6.416,8.84,6.85c2.578,0.219,30.541,2.129,42.311-1.66
							c0,0,2.066-0.918,0.639-4.02c-1.096-2.369-15.826-27.469-23.256-35.705C298.885,61.313,298.832,61.828,295.635,61.402z"/>
						<path style="fill:#12576F;" d="M295.738,62.594l-40.479-0.922c0,0-3.828,0.424-1.49,3.762
							c2.342,3.34,16.57,24.555,22.9,35.354c0,0,3.516,6.088,8.41,6.502c2.451,0.205,29.051,2.02,40.246-1.576
							c0,0,1.967-0.873,0.605-3.816c-1.041-2.248-15.053-26.066-22.121-33.881C298.832,62.51,298.781,63,295.738,62.594z"/>
						<path style="fill:#12576F;" d="M295.738,62.594l-40.479-0.922c0,0-3.828,0.424-1.49,3.762
							c2.342,3.34,16.57,24.555,22.9,35.354c0,0,3.516,6.088,8.41,6.502c2.451,0.205,29.051,2.02,40.246-1.576
							c0,0,1.967-0.873,0.605-3.816c-1.041-2.248-15.053-26.066-22.121-33.881C298.832,62.51,298.781,63,295.738,62.594z"/>
						<path style="opacity:0.6;fill:#00384B;" d="M264.732,80.486c0.359,0.191,0.721,0.379,1.08,0.559
							c4.31,2.137,8.949,3.609,13.65,4.592c8.697,1.818,18.707,2.561,27.191-0.629c2.4-0.902,4.779-2.221,6.541-4.113
							c-3.41-5.197-6.844-10.07-9.385-12.879c-4.978-5.506-5.029-5.016-8.072-5.422l-40.479-0.922c0,0-3.828,0.424-1.49,3.762
							c1.02,1.453,4.287,6.287,8.174,12.174C262.852,78.594,263.781,79.555,264.732,80.486z"/>
					</g>
					<path style="fill:#A5A59B;" d="M333.978,112.283c-0.545-0.205-1.103-0.348-1.658-0.371c-0.453,0.203-2.607,0.801-4.254,1.156
						c-8.279,1.779-23.162,1.469-23.162,1.469s-12.07-0.463-14.934-0.619c0,0-0.98,0.361,0.619,1.703c0,0,1.857,1.703,4.514,3.07
						c2.563,1.316,4.074,2.141,5.856,2.732c0.928,0.311,4.068,0.297,6.111,0.311c8.635,0.059,23.215-0.568,23.215-0.568
						s4.074-0.359,5.469-2.682C336.559,117.141,335.26,112.949,333.978,112.283z"/>
					<path style="opacity:0.8;fill:#E8E6D6;" d="M233.457,54.723c0,0,6.346,1.549,7.738,1.857c1.393,0.31,7.119,5.418,7.119,5.418
						s1.701,1.855,1.471,0.541c-0.232-1.316-0.232-3.328,4.488-3.715c4.719-0.387,41.088,1.16,41.088,1.16s1.779,0.31,2.242,0.387
						c0.465,0.078-2.785-2.475-5.338-3.094c-2.553-0.619-12.768-2.863-12.768-2.863s11.787,2.889,10.24,3.199
						c-0.012,0.002-40.611-0.801-40.611-0.801s-4.76-0.154-6.848-0.93C239.803,54.967,231.135,53.949,233.457,54.723z"/>
					<g>
						<path style="fill:#020000;" d="M295.439,148.15c0,0,1.508-2.66,4.443-2.994c2.935-0.332,30.939,0,30.939,0s3.096,0,3.65,0.887
							c0.555,0.887,2.537,2.885,0.793,3.328c-1.746,0.443-37.844,0-37.844,0S294.012,149.703,295.439,148.15z"/>
						<path style="fill:#616264;" d="M295.439,148.15c0,0,0.088-0.154,0.268-0.424c0.096-0.127,0.215-0.285,0.353-0.471
							c0.15-0.164,0.318-0.365,0.522-0.566c0.41-0.383,0.932-0.82,1.588-1.141c0.33-0.15,0.676-0.34,1.066-0.404
							c0.191-0.047,0.389-0.094,0.592-0.143c0.211-0.025,0.41-0.021,0.623-0.035c0.844-0.035,1.756-0.074,2.723-0.115
							c0.967-0.037,1.984-0.096,3.039-0.107c2.109-0.012,4.361-0.021,6.613-0.031c2.248,0.023,4.5,0.047,6.609,0.068
							c2.109,0.027,4.078,0.104,5.766,0.141c1.685,0.041,3.092,0.123,4.076,0.158c0.984,0.049,1.545,0.076,1.545,0.076
							s-0.561,0.016-1.547,0.045c-0.984,0.02-2.389,0.045-4.078,0.076c-1.686,0.014-3.654,0.059-5.764,0.053
							c-2.107,0.002-4.355,0.008-6.603,0.012c-2.246-0.018-4.494-0.037-6.602-0.053c-2.109,0.012-4.08,0.023-5.768,0.031
							c-0.207,0.004-0.422-0.008-0.613,0.012c-0.195,0.035-0.389,0.074-0.576,0.111c-0.381,0.037-0.723,0.201-1.049,0.328
							c-0.648,0.271-1.174,0.668-1.592,1.02c-0.205,0.186-0.379,0.373-0.537,0.523c-0.146,0.17-0.27,0.316-0.369,0.436
							C295.535,148.002,295.439,148.15,295.439,148.15z"/>
						<g>
							<path style="fill:#393838;" d="M334.473,146.043c-0.275-0.438-1.17-0.66-2.006-0.771c0.525,0.133,0.979,0.324,1.16,0.613
								c0.555,0.889,2.537,2.885,0.793,3.328c-1.746,0.443-37.844,0-37.844,0s-0.543,0.053-1.105,0.018
								c0.66,0.266,1.951,0.141,1.951,0.141s36.098,0.443,37.844,0C337.01,148.928,335.027,146.93,334.473,146.043z"/>
						</g>
					</g>
					<g>
						<path style="fill:#848586;" d="M334.156,128.621h-15.568h-0.326h-15.566c0,0-1.055-0.152-0.83,2.037
							c0,0,1.463,5.113,2.414,6.834c0,0,0.996,1.293,2.209,1.506l12.172,0.947l0.234,0.018l0.248-0.021l11.221-0.943
							c1.211-0.213,2.207-1.506,2.207-1.506c0.951-1.721,2.414-6.834,2.414-6.834C335.211,128.469,334.156,128.621,334.156,128.621z
							"/>
						<path style="fill:#37393A;" d="M334.156,128.621h-15.568h-0.326h-15.566c0,0-1.055-0.152-0.83,2.037
							c0,0,1.463,5.113,2.414,6.834c0,0,0.996,1.293,2.209,1.506l12.172,0.947l0.234,0.018l0.248-0.021l11.221-0.943
							c1.211-0.213,2.207-1.506,2.207-1.506c0.951-1.721,2.414-6.834,2.414-6.834C335.211,128.469,334.156,128.621,334.156,128.621z
							"/>
						<path style="fill:#848586;" d="M334.053,128.955H318.74h-0.322h-15.311c0,0-1.037-0.146-0.816,1.98
							c0,0,1.44,4.977,2.375,6.648c0,0,0.981,1.258,2.172,1.465l11.973,0.922l0.23,0.018l0.246-0.021l11.035-0.918
							c1.189-0.207,2.172-1.465,2.172-1.465c0.934-1.672,2.373-6.648,2.373-6.648C335.09,128.809,334.053,128.955,334.053,128.955z"
							/>
						<path style="fill:#484A46;" d="M332.988,129.498h-14.412h-0.301h-14.412c0,0-0.979-0.125-0.768,1.67
							c0,0,1.352,4.189,2.234,5.6c0,0,0.922,1.059,2.043,1.232l11.272,0.775l0.215,0.016l0.23-0.018L329.477,138
							c1.123-0.174,2.045-1.232,2.045-1.232c0.879-1.41,2.234-5.6,2.234-5.6C333.965,129.373,332.988,129.498,332.988,129.498z"/>
						<path style="fill:#222222;" d="M332.939,131.412h-29.766c0.065,0.189,0.164,0.484,0.285,0.84h29.932l0,0
							C333.244,131.969,333.09,131.689,332.939,131.412z"/>
						<path style="fill:#222222;" d="M332.24,132.676h-28.633c0.133,0.379,0.285,0.801,0.447,1.229h28.639
							C332.549,133.492,332.404,133.08,332.24,132.676z"/>
						<path style="fill:#222222;" d="M331.672,134.328h-27.455c0.137,0.354,0.277,0.705,0.42,1.035h27.576
							c0.004-0.006,0.006-0.016,0.01-0.023C332.059,134.994,331.867,134.658,331.672,134.328z"/>
						<path style="fill:#222222;" d="M330.861,135.787h-26.039c0.178,0.387,0.35,0.729,0.508,0.98c0,0,0.053,0.059,0.145,0.152h25.9
							c0.041-0.041,0.07-0.072,0.094-0.098C331.277,136.469,331.092,136.111,330.861,135.787z"/>
						<path style="fill:#222222;" d="M329.121,137.344h-23.158c0.369,0.279,0.865,0.574,1.41,0.656l11.272,0.775l0.215,0.016
							l0.23-0.018L329.477,138c0.053-0.008,0.102-0.025,0.152-0.037C329.451,137.766,329.285,137.553,329.121,137.344z"/>
						<path style="fill:#222222;" d="M332.967,129.498h-29.103c0,0-0.91-0.115-0.787,1.488h30.506
							C333.432,130.463,333.238,129.965,332.967,129.498z"/>
					</g>
					<path style="fill:#12576F;" d="M163.971,60.063c0,0-10.523,18.57-11.916,24.064c-1.393,5.494-1.162,10.213-1.162,10.213
						s1.395-5.879,3.871-12.379C157.238,75.461,163.971,60.063,163.971,60.063z"/>
					<g>
						<path style="fill:none;" d="M178.152,124.84c-5.055,0-9.559,2.689-12.477,6.881l25.287,0.49
							C188.059,127.738,183.402,124.84,178.152,124.84z"/>
						<path style="opacity:0.8;fill:#E8E6D6;" d="M163.98,123.877l-15.279-0.063l-2.1,7.537l12.57,0.242
							C160.055,128.662,161.738,125.814,163.98,123.877z"/>
						<path style="opacity:0.8;fill:#E8E6D6;" d="M244.121,124.205l-47.689-0.195c1.281,1.152,2.139,2.976,2.746,4.408
							c0.555,1.301,1.217,2.625,1.729,3.986l39.232,0.762C240.826,129.92,242.006,126.697,244.121,124.205z"/>
					</g>
					<path style="opacity:0.8;fill:#E8E6D6;" d="M164.539,66.434l-13.207,32.5c0,0,2.477,0.207,2.578,2.373
						c0.104,2.166,0,5.674,0,5.674l107.094,3.766l-97.342-6.965c0,0-6.654-3.404-6.811-10.524c0,0-0.154-2.939,1.084-6.5
						c1.236-3.559,11.607-26.463,11.607-26.463s2.01-2.785,4.332-4.334l-6.963,0.619c0,0,0.771,0.773,0,3.869
						C166.137,63.545,164.539,66.434,164.539,66.434z"/>
					<path style="fill:#ACADA2;" d="M236.621,146.965c-0.123,0-0.195-0.006-0.195-0.006h-33.74c-0.945-0.086-1.672-0.52-2.184-1.293
						c-1.115-1.686-0.793-4.365-0.777-4.479c1.279-12.777-6.418-19.725-8.711-20.551c-2.777-1-2.246-3.897-2.24-3.926l1.672-11.896
						c0.025-0.17,0.162-0.283,0.299-0.256c0.141,0.029,0.234,0.189,0.211,0.357l-1.676,11.916c-0.021,0.115-0.422,2.383,1.883,3.213
						c2.383,0.859,10.395,8.045,9.07,21.225c-0.002,0.035-0.303,2.541,0.674,4.012c0.418,0.633,1.023,0.988,1.797,1.061
						l33.742-0.002c0.18,0.018,3.916,0.357,4.641-5.154c0.07-0.527,0.133-1.125,0.203-1.783c0.729-6.848,2.086-19.598,16.48-24.158
						c0.1-0.018,6.73-1.057,7.371-4.717c0.029-0.168,0.168-0.275,0.307-0.238c0.141,0.035,0.229,0.199,0.199,0.365
						c-0.717,4.09-7.492,5.152-7.779,5.197c-14.027,4.445-15.353,16.926-16.066,23.629c-0.07,0.664-0.135,1.27-0.205,1.801
						C240.893,146.619,237.486,146.965,236.621,146.965z"/>
					<g>
						<path style="fill:#8E9093;" d="M197.219,107.418l-5.223-0.33c0,0-1.035-0.025-0.658,1.232c0.375,1.26,0.484,1.486,0.484,1.486
							s0.104,0.648,1.107,0.928c1.002,0.277,7.043,1.02,7.043,1.02s0.85,0.178,2.191-0.674c1.342-0.85,1.326-2.445,0.889-2.85
							c0,0,0.014-0.168-0.844-0.412C201.35,107.58,197.219,107.418,197.219,107.418z"/>
						<path style="opacity:0.6;fill:#FFFFFF;" d="M201.641,108.014l-8.789-0.643c0,0-1.313-0.059-1.137,0.531
							c0.211,0.701,0.338,1.189,1.674,1.389c1.336,0.203,6.439,0.816,6.439,0.816s1.914,0.256,2.566-0.445
							C203.047,108.963,202.744,108.16,201.641,108.014z"/>
					</g>
					<path style="fill:#ADAFB2;" d="M163.598,116.168h-2.035c-1.689,0-3.066-1.65-3.066-3.682v-2.443
						c0-2.031,1.377-3.684,3.066-3.684h2.035c1.691,0,3.066,1.652,3.066,3.684v2.443
						C166.664,114.518,165.289,116.168,163.598,116.168z M161.563,106.98c-1.404,0-2.549,1.373-2.549,3.063v2.443
						c0,1.689,1.145,3.063,2.549,3.063h2.035c1.406,0,2.551-1.373,2.551-3.063v-2.443c0-1.689-1.145-3.063-2.551-3.063H161.563z"/>
					<path style="fill:#D4D3C5;" d="M291.639,122.627c0.521,1.6-0.02,3.211-1.211,3.6c-1.191,0.389-2.582-0.59-3.104-2.188
						c-0.523-1.598,0.02-3.209,1.211-3.6C289.727,120.051,291.117,121.029,291.639,122.627z"/>
					<path style="fill:#D4D3C5;" d="M292.813,128.795c0.361,1.105-0.014,2.219-0.838,2.488c-0.824,0.268-1.783-0.408-2.145-1.514
						c-0.361-1.104,0.014-2.217,0.838-2.486C291.492,127.014,292.451,127.691,292.813,128.795z"/>
					<path style="fill:#D4D3C5;" d="M337.881,123.385c-0.289,1.48,0.369,2.853,1.471,3.07c1.102,0.215,2.23-0.809,2.521-2.287
						c0.289-1.477-0.369-2.85-1.471-3.066C339.299,120.887,338.17,121.908,337.881,123.385z"/>
					<path style="fill:#D4D3C5;" d="M339.897,128.707c-0.201,1.021,0.254,1.971,1.017,2.121c0.762,0.148,1.541-0.559,1.742-1.58
						c0.199-1.023-0.256-1.971-1.016-2.121C340.877,126.979,340.096,127.686,339.897,128.707z"/>
					<path style="fill:#FFFFFF;" d="M339.725,117.504c0,0-1.855,2.734-1.752,4.746c0.102,2.012,0.721,5.365,1.236,6.758
						c0,0-0.877-4.951-0.359-6.5c0.516-1.547,2.578-2.424,2.578-2.424S340.602,117.916,339.725,117.504z"/>
					<path style="fill:#FFFFFF;" d="M289.326,130.633c0,0-4.566-11.762-3.869-13.851c0,0-0.156-0.619,0.928-0.233
						c1.084,0.387,6.654,3.25,8.047,7.738c0,0-2.939-3.945-5.029-4.797c-2.09-0.851-3.25-1.392-2.939,0.387
						C286.772,121.656,289.326,130.633,289.326,130.633z"/>
				</g>
				<polygon style="fill:#252727;" points="188.576,57.818 179.602,101.615 187.803,102.389 192.291,58.281 				"/>
				<path style="fill:#00384B;" d="M267.43,103.227c-2.111-4.566-19.545-37.078-28.26-38.961
					c-6.934-1.496-29.227-5.367-45.242-6.486c-0.818,9.242-4.084,38.937-4.586,44.58l73.863,4.629
					C263.205,106.988,269.545,107.795,267.43,103.227z"/>
				<path style="opacity:0.5;fill:#00384B;" d="M201.402,80.35c8.385,1.166,16.656,2.703,24.766,5.168
					c8.223,2.496,16.232,5.674,23.961,9.434c6.08,2.961,11.984,6.246,17.728,9.795c-0.023-0.426-0.152-0.926-0.428-1.52
					c-2.111-4.566-19.545-37.078-28.26-38.961c-6.934-1.496-29.227-5.367-45.242-6.486c-0.375,4.248-1.27,12.812-2.172,21.379
					C194.977,79.506,198.195,79.904,201.402,80.35z"/>
				<path style="fill:#00384B;" d="M187.541,57.482c-1.594-0.027-3.061-0.008-4.369,0.066c0,0-8.352-0.33-11.967,6.418
					c0,0-7.844,17.764-9.693,22.871c-1.85,5.105-1.586,13.164,7.396,14.238l9.43,0.592C179.27,96.467,185.494,67.033,187.541,57.482
					z"/>
				<path style="opacity:0.5;fill:#00384B;" d="M169.555,77.932c4.525-0.035,9.047,0.141,13.559,0.455
					c1.748-8.314,3.508-16.615,4.428-20.904c-1.594-0.027-3.061-0.008-4.369,0.066c0,0-8.352-0.33-11.967,6.418
					c0,0-3.285,7.44-6.104,14.074C166.588,77.98,168.074,77.943,169.555,77.932z"/>
				<g>
					<path style="fill:#302F30;" d="M261.918,102.297l4.805,2.594c0,0,2.483,1.555,1.443,3.523c0,0-0.064,0.643-1.875,0.689
						c-1.81,0.049-6.424-2.787-6.424-2.787L261.918,102.297z"/>
					<g>
						<g>
							<path style="fill:#484747;" d="M255.125,99.496c0.875-2.93,5.326-2.518,5.334-2.518c1.904,0.17,3.348,2.484,4.428,4.945
								c1.246,2.838,0.318,8.637-2.023,8.098c-2.688-0.619-1.662-0.16-6.008-1.689C255.721,107.934,254.061,103.064,255.125,99.496z
								"/>
						</g>
						<g>
							<path style="fill:#353535;" d="M255.125,99.496c0.078-0.268,0.191-0.508,0.324-0.721c-0.045,1.373,0.205,2.738,0.996,3.807
								c0.988,1.33,2.43,2.023,3.832,2.492c0.842,0.281,1.67,0.637,2.529,0.84c0.688,0.166,1.617,0.385,2.258-0.088
								c0.143-0.107,0.266-0.229,0.369-0.361c-0.092,2.496-1.021,4.916-2.57,4.557c-2.688-0.619-1.662-0.16-6.008-1.689
								C255.721,107.934,254.061,103.064,255.125,99.496z"/>
						</g>
					</g>
				</g>
				<path style="fill:#BABAAE;" d="M295.672,120.908c0,0,2.475,3.92,2.682,8.357c0,0,0,1.342,0.928,1.135
					c0.928-0.207,0.619-2.682,3.611-3.094c2.992-0.414,30.642,0,30.642,0s1.961-0.002,2.27,0.721
					c0.309,0.721,1.754,2.373,1.65,1.135c-0.104-1.238-2.063-6.5-1.238-8.769c0,0-0.928-0.93-1.547,0.824
					c-0.619,1.756,0.826,2.373-3.096,3.096c-3.922,0.723-27.135,0-27.135,0s-4.021,0.207-5.055-0.824
					C298.353,122.455,294.742,119.463,295.672,120.908z"/>
				<g>
					<path style="fill:#8E310E;" d="M150.174,101.949l-0.738,11.295c0,0-0.008,1.133,1.115,0.527
						c1.123-0.605,1.443-1.564,1.85-5.107c0.406-3.543,0.535-5.156,0.535-5.156s0.25-3.063-0.533-3.254s-1.576-0.141-1.576-0.141
						S150.271,100.256,150.174,101.949z"/>
					<path style="fill:#DC4E14;" d="M150.131,102.391l-0.676,10.309c0,0-0.006,1.033,1.018,0.48c1.025-0.555,1.32-1.428,1.689-4.662
						c0.371-3.232,0.486-4.705,0.486-4.705s0.23-2.795-0.486-2.971c-0.713-0.174-1.436-0.125-1.436-0.125
						S150.219,100.844,150.131,102.391z"/>
					<path style="fill:#DC4E14;" d="M151.086,101.176c0,0-0.643-0.023-0.768,0.963c-0.127,0.99-0.73,10.734-0.73,10.734l1.035-9.365
						c0,0,0.078-0.935,0.887-1.115c0,0,0.703-0.389,0.818-1.063L151.086,101.176z"/>
				</g>
			</g>
			<g>
				<rect x="73.975" y="85.111" style="fill:#565F5C;" width="6.027" height="73.746"/>
				<rect x="73.975" y="85.111" style="opacity:0.5;fill:#636C69;" width="2.17" height="73.746"/>
				<rect x="77.584" y="85.111" style="opacity:0.5;fill:#DFE5F1;" width="1.219" height="73.746"/>
				<path style="fill:#00A165;" d="M59.756,52.945v38.912h27.959V41.449H70.361l0.066,0.047c-0.182-0.01-0.365-0.027-0.551-0.027
					c-5.592,0-10.121,4.525-10.121,10.107c0,0.043,0.006,0.084,0.006,0.127c-0.012,0.195-0.002,0.334-0.002,0.334v0.908H59.756z"/>
				<path style="opacity:0.5;fill:#58AB63;" d="M59.756,52.945v0.273h27.959v-7.23H61.445c-1.066,1.602-1.69,3.52-1.69,5.588
					c0,0.043,0.006,0.084,0.006,0.127c-0.012,0.195-0.002,0.334-0.002,0.334v0.908H59.756z"/>
				<path style="opacity:0.5;fill:#B9D65C;" d="M87.715,49.844v-2.088H60.51c-0.271,0.662-0.467,1.363-0.596,2.088H87.715z"/>
				<path style="fill:#D9E025;" d="M76.545,52.945v38.912h9.24V41.514c-5.176,0.445-9.24,4.777-9.24,10.063
					c0,0.043,0.008,0.084,0.008,0.127c-0.012,0.195-0.002,0.334-0.002,0.334v0.908H76.545z"/>
				<path style="fill:#97C93D;" d="M77.348,52.945v38.912h20.277V51.684c0-0.221-0.023-0.4-0.059-0.555
					c-0.234-5.373-4.66-9.66-10.096-9.66c-5.592,0-10.123,4.525-10.123,10.107c0,0.043,0.008,0.084,0.008,0.127
					c-0.012,0.195-0.002,0.334-0.002,0.334v0.908H77.348z"/>
				<g>
					<rect x="75.727" y="155.967" style="fill:#CBCCCE;" width="23.281" height="5.522"/>
					<rect x="75.727" y="155.967" style="fill:#DFE5F1;" width="23.281" height="0.943"/>
					<g>
						<rect x="57.33" y="155.967" style="fill:#828B87;" width="20.17" height="5.522"/>
						<rect x="57.33" y="155.967" style="fill:#EAF5EA;" width="20.17" height="0.877"/>
					</g>
				</g>
				<g>
					<path style="fill:#00A165;" d="M96.217,86.738V54.857h-0.012c-0.145-5.85-3.783-10.537-8.262-10.537
						c-4.48,0-8.117,4.688-8.262,10.537h-0.014v31.82L96.217,86.738z"/>
					<path style="fill:#EFF5DE;" d="M96.031,86.195V55.463H96.02c-0.141-5.748-3.678-10.357-8.033-10.357
						c-4.357,0-7.895,4.609-8.033,10.357h-0.016v30.732H96.031z"/>
					<g>
						<rect x="82.115" y="53.59" style="fill:#232323;" width="11.986" height="11.725"/>
						<polygon style="fill:#5F6062;" points="94.045,65.217 82.146,65.217 83.184,53.834 93.057,53.834 						"/>
						<path style="opacity:0.3;fill:#5F6062;" d="M89.418,59.217c1.643,0.203,3.092,1.035,4.314,2.406l-0.676-7.789h-9.873
							l-0.729,7.996C84.498,59.834,86.941,58.912,89.418,59.217z"/>
					</g>
					<g>
						<g>
							<path style="fill:#1C1C1C;" d="M85.045,67.469c0,0.463-0.25,0.838-0.561,0.838c-0.309,0-0.561-0.375-0.561-0.838
								c0-0.463,0.252-0.84,0.561-0.84C84.795,66.629,85.045,67.006,85.045,67.469z"/>
							<path style="fill:#525251;" d="M84.998,67.566c0,0.426-0.23,0.768-0.514,0.768c-0.283,0-0.514-0.342-0.514-0.768
								c0-0.426,0.23-0.77,0.514-0.77C84.768,66.797,84.998,67.141,84.998,67.566z"/>
						</g>
						<g>
							<path style="fill:#1C1C1C;" d="M87.463,67.469c0,0.463-0.252,0.838-0.563,0.838c-0.309,0-0.561-0.375-0.561-0.838
								c0-0.463,0.252-0.84,0.561-0.84C87.211,66.629,87.463,67.006,87.463,67.469z"/>
							<path style="fill:#525251;" d="M87.414,67.566c0,0.426-0.229,0.768-0.514,0.768c-0.283,0-0.514-0.342-0.514-0.768
								c0-0.426,0.23-0.77,0.514-0.77C87.186,66.797,87.414,67.141,87.414,67.566z"/>
						</g>
						<g>
							<path style="fill:#1C1C1C;" d="M89.877,67.469c0,0.463-0.25,0.838-0.559,0.838c-0.311,0-0.561-0.375-0.561-0.838
								c0-0.463,0.25-0.84,0.561-0.84C89.627,66.629,89.877,67.006,89.877,67.469z"/>
							<path style="fill:#525251;" d="M89.832,67.566c0,0.426-0.232,0.768-0.514,0.768c-0.285,0-0.514-0.342-0.514-0.768
								c0-0.426,0.229-0.77,0.514-0.77C89.6,66.797,89.832,67.141,89.832,67.566z"/>
						</g>
						<g>
							<path style="fill:#1C1C1C;" d="M92.295,67.469c0,0.463-0.252,0.838-0.561,0.838c-0.311,0-0.561-0.375-0.561-0.838
								c0-0.463,0.25-0.84,0.561-0.84C92.043,66.629,92.295,67.006,92.295,67.469z"/>
							<path style="fill:#525251;" d="M92.246,67.566c0,0.426-0.229,0.768-0.512,0.768c-0.285,0-0.514-0.342-0.514-0.768
								c0-0.426,0.229-0.77,0.514-0.77C92.018,66.797,92.246,67.141,92.246,67.566z"/>
						</g>
					</g>
					<g>
						<g>
							<path style="fill:#1F1F1F;" d="M94.041,78.672c0,1.84-1,3.332-2.229,3.332c-1.23,0-2.227-1.492-2.227-3.332
								c0-1.842,0.996-3.332,2.227-3.332C93.041,75.34,94.041,76.83,94.041,78.672z"/>
							<path style="fill:#4CAD57;" d="M93.736,78.732c0,1.59-0.863,2.877-1.924,2.877c-1.061,0-1.922-1.287-1.922-2.877
								c0-1.59,0.861-2.877,1.922-2.877C92.873,75.855,93.736,77.143,93.736,78.732z"/>
						</g>
						<path style="fill:#494848;" d="M93.502,78.732c0,1.395-0.756,2.529-1.689,2.529l0,0c-0.934,0-1.689-1.135-1.689-2.529l0,0
							c0-1.396,0.756-2.531,1.689-2.531l0,0C92.746,76.201,93.502,77.336,93.502,78.732L93.502,78.732z"/>
						<path style="fill:#605E5E;" d="M93.324,78.746c0,1.248-0.674,2.266-1.512,2.266l0,0c-0.836,0-1.514-1.018-1.514-2.266l0,0
							c0-1.25,0.678-2.264,1.514-2.264l0,0C92.65,76.482,93.324,77.496,93.324,78.746L93.324,78.746z"/>
					</g>
					<g>
						<path style="fill:#1F1F1F;" d="M87.18,78.746c0,1.842-0.998,3.334-2.227,3.334c-1.23,0-2.229-1.492-2.229-3.334
							c0-1.838,0.998-3.332,2.229-3.332C86.182,75.414,87.18,76.908,87.18,78.746z"/>
						<path style="fill:#4CAD57;" d="M86.875,78.746c0,1.59-0.861,2.877-1.922,2.877c-1.063,0-1.924-1.287-1.924-2.877
							c0-1.588,0.861-2.875,1.924-2.875C86.014,75.871,86.875,77.158,86.875,78.746z"/>
						<path style="fill:#494848;" d="M86.623,78.789c0,1.379-0.746,2.502-1.67,2.502l0,0c-0.924,0-1.672-1.123-1.672-2.502l0,0
							c0-1.381,0.748-2.504,1.672-2.504l0,0C85.877,76.285,86.623,77.408,86.623,78.789L86.623,78.789z"/>
						<path style="fill:#605E5E;" d="M86.451,78.789c0,1.238-0.67,2.242-1.498,2.242l0,0c-0.828,0-1.498-1.004-1.498-2.242l0,0
							c0-1.24,0.67-2.246,1.498-2.246l0,0C85.781,76.543,86.451,77.549,86.451,78.789L86.451,78.789z"/>
					</g>
					<path d="M84.463,77.689c0.061,0.107,0.047,0.268-0.025,0.354l-0.291,0.35c-0.072,0.088-0.18,0.07-0.236-0.037l0,0
						c-0.057-0.109-0.047-0.268,0.025-0.355l0.291-0.35C84.299,77.564,84.406,77.582,84.463,77.689L84.463,77.689z"/>
					<path d="M85.961,78.367c-0.063,0.104-0.168,0.107-0.236,0.016l-0.275-0.381c-0.068-0.094-0.072-0.254-0.01-0.355l0,0
						c0.064-0.102,0.17-0.107,0.238-0.014l0.274,0.379C86.02,78.105,86.023,78.266,85.961,78.367L85.961,78.367z"/>
					<path d="M84.574,79.982c0.002-0.139,0.082-0.248,0.174-0.244l0.373,0.018c0.094,0.004,0.166,0.121,0.164,0.258l0,0
						c-0.004,0.139-0.082,0.25-0.174,0.244l-0.373-0.016C84.646,80.236,84.572,80.123,84.574,79.982L84.574,79.982z"/>
					<path d="M91.381,77.689c0.059,0.107,0.047,0.268-0.025,0.354l-0.293,0.35c-0.072,0.088-0.178,0.07-0.236-0.037l0,0
						c-0.057-0.109-0.045-0.268,0.025-0.355l0.293-0.35C91.217,77.564,91.322,77.582,91.381,77.689L91.381,77.689z"/>
					<path d="M92.879,78.367c-0.063,0.104-0.17,0.107-0.238,0.016l-0.273-0.381c-0.07-0.094-0.072-0.254-0.01-0.355l0,0
						c0.063-0.102,0.17-0.107,0.236-0.014l0.275,0.379C92.938,78.105,92.941,78.266,92.879,78.367L92.879,78.367z"/>
					<path d="M91.492,79.982c0.002-0.139,0.08-0.248,0.174-0.244l0.373,0.018c0.092,0.004,0.166,0.121,0.162,0.258l0,0
						c-0.002,0.139-0.08,0.25-0.172,0.244l-0.375-0.016C91.563,80.236,91.488,80.123,91.492,79.982L91.492,79.982z"/>
					<polygon style="fill:#97C93D;" points="92.043,71.246 92.689,71.246 92.15,72.816 92.447,72.816 91.678,74.773 92.057,73.059 
						91.625,73.059 					"/>
					<polygon style="fill:#97C93D;" points="85.074,71.246 85.721,71.246 85.182,72.816 85.477,72.816 84.709,74.773 85.088,73.059 
						84.656,73.059 					"/>
					<g>
						<g>
							<g>
								<path style="fill:#61BC4F;" d="M87.016,63.27c-0.266,0-0.479,0.322-0.479,0.719c0,0.397,0.213,0.719,0.479,0.719
									c0.266,0,0.48-0.322,0.48-0.719C87.496,63.592,87.281,63.27,87.016,63.27z M87.016,64.467c-0.176,0-0.32-0.213-0.32-0.478
									c0-0.266,0.145-0.479,0.32-0.479c0.178,0,0.322,0.213,0.322,0.479C87.338,64.254,87.193,64.467,87.016,64.467z"/>
								<path style="fill:#61BC4F;" d="M87.016,63.576c-0.152,0-0.277,0.188-0.277,0.416c0,0.229,0.125,0.414,0.277,0.414
									c0.152,0,0.279-0.186,0.279-0.414C87.295,63.764,87.168,63.576,87.016,63.576z"/>
							</g>
							<g>
								<path style="fill:#61BC4F;" d="M89.037,63.27c-0.266,0-0.479,0.322-0.479,0.719c0,0.397,0.213,0.719,0.479,0.719
									c0.266,0,0.48-0.322,0.48-0.719C89.518,63.592,89.303,63.27,89.037,63.27z M89.037,64.467c-0.178,0-0.32-0.213-0.32-0.478
									c0-0.266,0.143-0.479,0.32-0.479c0.178,0,0.322,0.213,0.322,0.479C89.359,64.254,89.215,64.467,89.037,64.467z"/>
								<path style="fill:#61BC4F;" d="M89.037,63.576c-0.152,0-0.275,0.188-0.275,0.416c0,0.229,0.123,0.414,0.275,0.414
									c0.154,0,0.277-0.186,0.277-0.414C89.314,63.764,89.191,63.576,89.037,63.576z"/>
							</g>
							<g>
								<path style="fill:#61BC4F;" d="M89.975,63.922c-0.002-0.027-0.008-0.055-0.01-0.082c-0.127,0.002-0.252,0.01-0.377,0.012
									c0.006,0.045,0.01,0.094,0.01,0.141c0,0.043-0.004,0.088-0.008,0.129c0.121-0.002,0.242-0.006,0.363-0.014
									c0.02-0.002,0.035-0.039,0.029-0.063C89.986,64.012,89.982,63.965,89.975,63.922z"/>
								<path style="fill:#61BC4F;" d="M89.936,63.701c-0.014-0.078-0.029-0.158-0.047-0.234c-0.024-0.146-0.053-0.332-0.127-0.436
									c-0.106-0.152-0.262-0.215-0.424-0.244c-0.01-0.025-0.02-0.047-0.027-0.063c-0.035-0.117-0.078-0.23-0.121-0.344
									c-0.08-0.215-0.152-0.438-0.242-0.641c-0.1-0.238-0.328-0.293-0.529-0.297l0,0c-0.223-0.021-0.994-0.096-1.148,0.297
									c-0.082,0.211-0.16,0.426-0.242,0.641c-0.043,0.113-0.086,0.226-0.123,0.344c-0.004,0.016-0.014,0.037-0.023,0.063
									c-0.162,0.029-0.318,0.092-0.426,0.244c-0.072,0.104-0.1,0.289-0.125,0.436c-0.02,0.076-0.035,0.156-0.051,0.234
									c-0.004,0.027-0.01,0.059-0.016,0.086h0.211c0.063-0.363,0.279-0.633,0.541-0.633c0.311,0,0.559,0.375,0.559,0.838
									c0,0.041-0.002,0.082-0.006,0.121c0.182-0.004,0.361-0.008,0.541-0.008c0.125,0,0.248,0.002,0.375,0.004
									c-0.004-0.037-0.006-0.078-0.006-0.117c0-0.463,0.25-0.838,0.559-0.838c0.258,0,0.477,0.264,0.539,0.623
									c0.125-0.004,0.25-0.01,0.375-0.012C89.945,63.742,89.941,63.721,89.936,63.701z M86.926,62.801
									c0,0,0.232-0.646,0.293-0.813c0.059-0.164,0.108-0.213,0.108-0.213c-0.105,0.289-0.205,1.025-0.205,1.025H86.926z
									 M88.039,63.047h-0.172c-0.033,0-0.016-0.074,0.008-0.074h0.176C88.084,62.973,88.066,63.047,88.039,63.047z M88.084,62.82
									H87.18c0,0,0.109-0.887,0.226-1.113c0.117-0.223,0.678-0.182,0.678-0.182V62.82z M88.137,62.82v-1.295
									c0,0,0.559-0.041,0.678,0.182c0.115,0.227,0.225,1.113,0.225,1.113H88.137z M89.098,62.801c0,0-0.1-0.736-0.203-1.025
									c0,0,0.045,0.049,0.107,0.213c0.059,0.166,0.289,0.813,0.289,0.813H89.098z"/>
								<path style="fill:#61BC4F;" d="M86.463,63.863H86.25c-0.002,0.02-0.004,0.039-0.006,0.059
									c-0.008,0.043-0.012,0.09-0.008,0.123c-0.006,0.023,0.008,0.061,0.029,0.063c0.064,0.004,0.133,0.008,0.197,0.01
									c-0.004-0.041-0.006-0.084-0.006-0.125C86.457,63.949,86.459,63.906,86.463,63.863z"/>
							</g>
						</g>
						<g>
							<g>
								<path style="fill:#E1DABD;" d="M89.258,54.789c0.133,0,0.242,0.156,0.242,0.35v1.617c0,0.193-0.109,0.348-0.242,0.348
									h-0.271v-2.314H89.258z"/>
							</g>
							<g>
								<rect x="88.389" y="54.789" style="fill:#B6D440;" width="0.514" height="2.314"/>
							</g>
							<g>
								<rect x="87.789" y="54.789" style="fill:#B6D440;" width="0.512" height="2.314"/>
							</g>
							<g>
								<rect x="87.189" y="54.789" style="fill:#61BC4F;" width="0.514" height="2.314"/>
							</g>
							<g>
								<path style="fill:#61BC4F;" d="M86.838,57.104c-0.133,0-0.244-0.154-0.244-0.348v-1.617c0-0.193,0.111-0.35,0.244-0.35
									h0.266v2.314H86.838z"/>
							</g>
							<g>
								<g>
									<path style="fill:#B6D440;" d="M89.68,56.85v-1.805c0-0.256-0.141-0.461-0.309-0.461h-2.619
										c-0.17,0-0.311,0.205-0.311,0.461v1.805c0,0.254,0.141,0.461,0.311,0.461h2.619C89.539,57.311,89.68,57.104,89.68,56.85z
										 M86.818,57.203c-0.162,0-0.291-0.189-0.291-0.426v-1.662c0-0.234,0.129-0.422,0.291-0.422h2.467
										c0.16,0,0.291,0.188,0.291,0.422v1.662c0,0.236-0.131,0.426-0.291,0.426H86.818z"/>
								</g>
								<g>
									<path style="fill:#B6D440;" d="M89.625,56.537h0.061c0.049,0,0.088-0.092,0.088-0.207v-0.816
										c0-0.115-0.039-0.209-0.088-0.209h-0.061V56.537z"/>
								</g>
							</g>
						</g>
						<g>
							<g>
								<polygon style="fill:#FFFFFF;" points="87.482,58.234 87.482,59.371 87.068,59.371 88.109,60.5 89.148,59.371 
									88.736,59.371 88.736,58.234 								"/>
							</g>
						</g>
					</g>
				</g>
			</g>
			<g>
				<path style="fill:#434345;" d="M156.139,110.916l0.955,0.465c0,0-0.242,0.543-0.695,1.564c-0.244,0.504-0.482,1.15-0.756,1.914
					c-0.297,0.754-0.566,1.648-0.863,2.652c-1.186,4.023-2.359,9.98-4.436,16.967c-1.041,3.492-2.377,7.236-4.246,11.002
					c-0.965,1.867-2.051,3.742-3.334,5.549c-1.303,1.789-2.783,3.516-4.471,5.094c-1.719,1.543-3.635,2.934-5.771,4.023
					c-2.154,1.051-4.553,1.707-7.027,1.775c-2.5,0.033-4.928-0.646-7.168-1.666c-2.233-1.031-4.379-2.344-6.129-4.152
					c-0.432-0.453-0.805-0.971-1.207-1.455c-0.406-0.488-0.662-1.037-0.998-1.553l-0.953-1.568
					c-0.313-0.525-0.553-1.088-0.834-1.631l-0.811-1.637c-0.252-0.553-0.459-1.125-0.691-1.684l-0.674-1.686l-0.563-1.717
					c-1.482-4.578-2.332-9.24-2.906-13.756c-1.113-9.049-1.254-17.529-1.973-24.727c-0.301-3.604-0.84-6.865-1.338-9.775
					c-0.486-2.904-0.91-5.438-1.26-7.521c-0.697-4.172-1.096-6.555-1.096-6.555l1.047-0.188c0,0,0.398,2.389,1.098,6.566
					c0.35,2.09,0.773,4.627,1.26,7.535c0.498,2.9,1.043,6.207,1.348,9.838c0.721,7.244,0.863,15.729,1.969,24.693
					c0.568,4.475,1.408,9.072,2.863,13.561l0.549,1.684l0.66,1.646c0.227,0.547,0.43,1.107,0.676,1.646l0.791,1.598
					c0.273,0.527,0.508,1.078,0.813,1.59l0.928,1.527c0.324,0.494,0.588,1.055,0.961,1.494c0.371,0.441,0.705,0.914,1.105,1.334
					c1.625,1.682,3.676,2.941,5.799,3.92c2.129,0.975,4.449,1.609,6.719,1.576c2.281-0.066,4.535-0.674,6.574-1.668
					c2.025-1.035,3.865-2.367,5.521-3.852c1.627-1.523,3.059-3.193,4.326-4.932c1.246-1.754,2.305-3.582,3.25-5.408
					c1.828-3.684,3.146-7.371,4.176-10.83c2.061-6.928,3.227-12.857,4.432-16.957c0.305-1.025,0.58-1.941,0.887-2.719
					c0.281-0.785,0.527-1.449,0.777-1.969C155.889,111.477,156.139,110.916,156.139,110.916z"/>
				<path style="fill:#060407;" d="M156.139,110.916l0.383,0.188c0,0-0.246,0.553-0.707,1.594c-0.248,0.512-0.492,1.17-0.77,1.947
					c-0.303,0.768-0.576,1.674-0.877,2.691c-1.197,4.07-2.367,10.016-4.436,16.969c-1.035,3.473-2.361,7.184-4.207,10.902
					c-0.953,1.842-2.025,3.689-3.287,5.465c-1.283,1.76-2.736,3.449-4.387,4.996c-1.684,1.508-3.557,2.863-5.629,3.916
					c-2.086,1.02-4.402,1.641-6.76,1.703c-2.363,0.025-4.729-0.625-6.9-1.623c-2.168-1.002-4.252-2.291-5.93-4.021
					c-0.406-0.439-0.762-0.926-1.145-1.387c-0.381-0.463-0.645-1.016-0.973-1.52l-0.938-1.545c-0.305-0.52-0.545-1.074-0.818-1.607
					l-0.801-1.615c-0.244-0.547-0.451-1.109-0.68-1.662l-0.666-1.664l-0.553-1.697c-1.463-4.527-2.307-9.154-2.873-13.646
					c-1.107-9.002-1.248-17.488-1.971-24.715c-0.305-3.621-0.85-6.912-1.348-9.816c-0.486-2.908-0.912-5.445-1.262-7.533
					c-0.697-4.176-1.098-6.563-1.098-6.563l0.422-0.076c0,0,0.398,2.389,1.098,6.568c0.35,2.09,0.775,4.627,1.262,7.539
					c0.498,2.9,1.045,6.207,1.35,9.84c0.725,7.248,0.867,15.734,1.971,24.703c0.564,4.477,1.404,9.076,2.855,13.566l0.549,1.686
					l0.66,1.648c0.227,0.547,0.432,1.105,0.674,1.648l0.791,1.598c0.273,0.527,0.51,1.078,0.811,1.59l0.928,1.529
					c0.322,0.494,0.59,1.051,0.957,1.496c0.371,0.443,0.711,0.912,1.104,1.338c1.627,1.682,3.674,2.949,5.797,3.93
					c2.127,0.979,4.449,1.611,6.721,1.584c2.279-0.061,4.537-0.66,6.578-1.658c2.027-1.033,3.869-2.363,5.527-3.848
					c1.627-1.523,3.061-3.191,4.328-4.932c1.248-1.754,2.309-3.582,3.254-5.406c1.828-3.688,3.148-7.375,4.18-10.834
					c2.061-6.93,3.229-12.863,4.434-16.965c0.305-1.025,0.58-1.941,0.887-2.719c0.279-0.785,0.527-1.451,0.777-1.969
					C155.889,111.477,156.139,110.916,156.139,110.916z"/>
			</g>
			<g>
				<g>
					<g>
						<path style="fill:#1A73AE;" d="M94.291,79.785c0.17-0.311,0.271-0.658,0.271-1.043c0-0.393-0.109-0.758-0.289-1.08
							l-0.012-1.127h-1.904c-1.221,0-2.205,0.99-2.205,2.207c0,1.121,0.84,2.039,1.926,2.18v0.01l0.117,0.002
							c0.055,0.002,0.104,0.018,0.162,0.018c0.051,0,0.092-0.016,0.141-0.016l1.807,0.016L94.291,79.785z"/>
						<path style="fill:#1A73AE;" d="M94.422,78.025c-0.045-0.127-0.088-0.248-0.148-0.363l-0.012-1.127h-1.904
							c-0.965,0-1.777,0.625-2.074,1.49H94.422z"/>
						<path style="fill:#1A73AE;" d="M94.477,79.324h-4.238c0.234,0.842,0.949,1.48,1.84,1.598v0.01l0.117,0.002
							c0.055,0.002,0.104,0.018,0.162,0.018c0.051,0,0.092-0.016,0.141-0.016l1.807,0.016l-0.014-1.166
							C94.371,79.639,94.432,79.484,94.477,79.324z"/>
						<path style="fill:#135C8C;" d="M96.375,78.742c0,1.219-0.986,2.209-2.205,2.209l0,0c-1.221,0-2.207-0.99-2.207-2.209l0,0
							c0-1.217,0.986-2.207,2.207-2.207l0,0C95.389,76.535,96.375,77.525,96.375,78.742L96.375,78.742z"/>
						<path style="fill:#001B39;" d="M98.295,81.869c0,0-0.514-2.705-1.383-3.656c-0.867-0.947-2.5-0.92-2.5-0.92
							c-0.797,0-1.441,0.646-1.441,1.439c0,0.801,0.644,1.443,1.441,1.443c0,0,0.85-0.121,1.309-0.012
							c0.459,0.107,1.229,2.248,1.229,2.248C98.002,82.594,98.295,81.869,98.295,81.869z"/>
						<path style="fill:#125987;" d="M93.268,78.818c0,0-0.039-0.977,0.896-1.363c0,0,1.828,0.021,2.457,0.652
							c0.629,0.625,1.441,3.592,1.441,3.592s-0.914-2.984-1.846-3.371c-0.936-0.383-2.236-0.283-2.236-0.283
							S93.453,78.123,93.268,78.818z"/>
					</g>
					<g>
						<g>
							<path d="M167.506,111.432c0,2.646-2.148,4.795-4.795,4.795l0,0c-2.65,0-4.795-2.148-4.795-4.795v-3.914
								c0-2.65,2.145-4.799,4.795-4.799l0,0c2.646,0,4.795,2.148,4.795,4.799V111.432z"/>
							<path style="fill:#252727;" d="M166.98,111.389c0,2.361-1.912,4.271-4.27,4.271l0,0c-2.361,0-4.273-1.91-4.273-4.271v-3.486
								c0-2.363,1.912-4.275,4.273-4.275l0,0c2.357,0,4.27,1.912,4.27,4.275V111.389z"/>
							<path style="fill:#AEAEA4;" d="M167.566,111.432c0,2.646,1.125,4.795,2.508,4.795l0,0c1.385,0,2.51-2.148,2.51-4.795v-3.914
								c0-2.65-1.125-4.799-2.51-4.799l0,0c-1.383,0-2.508,2.148-2.508,4.799V111.432z"/>
							<path style="fill:#D0CFC5;" d="M167.566,111.432c0,2.646,0.969,4.795,2.164,4.795l0,0c1.193,0,2.162-2.148,2.162-4.795
								v-3.914c0-2.65-0.969-4.799-2.162-4.799l0,0c-1.195,0-2.164,2.148-2.164,4.799V111.432z"/>
						</g>
						<g>
							<g>
								<path style="fill:#1F1F1F;" d="M158.596,109.781c0,1.891,1.535,3.432,3.434,3.432l0,0c1.898,0,3.434-1.541,3.434-3.432l0,0
									c0-1.899-1.535-3.438-3.434-3.438l0,0C160.131,106.344,158.596,107.883,158.596,109.781L158.596,109.781z"/>
								<path style="fill:#1A73AE;" d="M159.635,111.25c-0.217-0.398-0.35-0.85-0.35-1.34c0-0.508,0.143-0.975,0.375-1.389
									l0.016-1.447h2.441c1.57,0,2.838,1.268,2.838,2.836c0,1.441-1.082,2.619-2.477,2.797v0.014l-0.146,0.002
									c-0.072,0.008-0.141,0.025-0.215,0.025c-0.061,0-0.117-0.018-0.178-0.021l-2.318,0.021L159.635,111.25z"/>
								<path style="fill:#1A73AE;" d="M159.465,108.984c0.059-0.158,0.113-0.316,0.195-0.463l0.016-1.447h2.441
									c1.242,0,2.283,0.801,2.672,1.91H159.465z"/>
								<path style="fill:#1A73AE;" d="M159.398,110.656h5.443c-0.299,1.082-1.217,1.906-2.363,2.051v0.014l-0.146,0.002
									c-0.072,0.008-0.141,0.025-0.215,0.025c-0.061,0-0.117-0.018-0.178-0.021l-2.318,0.021l0.014-1.498
									C159.535,111.064,159.455,110.861,159.398,110.656z"/>
								<path style="fill:#135C8C;" d="M156.959,109.91c0,1.564,1.268,2.838,2.836,2.838l0,0c1.564,0,2.832-1.273,2.832-2.838l0,0
									c0-1.568-1.268-2.836-2.832-2.836l0,0C158.227,107.074,156.959,108.342,156.959,109.91L156.959,109.91z"/>
							</g>
							<path style="fill:#001B39;" d="M154.496,113.926c0,0,0.658-3.475,1.771-4.695c1.113-1.219,3.215-1.184,3.215-1.184
								c1.021,0,1.852,0.83,1.852,1.854c0,1.021-0.83,1.852-1.852,1.852c0,0-1.092-0.152-1.682-0.016
								c-0.592,0.139-1.574,2.887-1.574,2.887C154.867,114.859,154.496,113.926,154.496,113.926z"/>
							<path style="fill:#125987;" d="M160.949,110.006c0,0,0.051-1.254-1.15-1.75c0,0-2.348,0.027-3.154,0.836
								c-0.809,0.809-1.854,4.619-1.854,4.619s1.174-3.836,2.375-4.332c1.199-0.494,2.869-0.367,2.869-0.367
								S160.713,109.119,160.949,110.006z"/>
						</g>
					</g>
				</g>
			</g>
		</g>
	</g>
</g>
</svg>
